<svg width="50" height="50" viewBox="0 0 50 50" fill="none" xmlns="http://www.w3.org/2000/svg"><path d="M13.813 23.468c-.342-.09-.717-.14-1.025-.269-3.19-1.339-3.271-5.75-.067-7.13 2.733-1.178 5.708 1.183 5.284 4.13-.255 1.775-1.703 3.038-3.458 3.255-.015.002-.022.01-.022.023 0 .005.004.01.01.014a.038.038 0 00.02.006l3.835.003a.1.1 0 01.08.04l5.686 6.952c.042.052.063.044.063-.022V1.935a.03.03 0 01.03-.03h13.025a.028.028 0 01.021.008.03.03 0 01.009.022l.002 3.015a.03.03 0 00.008.022.029.029 0 00.021.008h8.778a.027.027 0 01.022.012.025.025 0 01.004.011l-.001.013-1.817 4.536a.12.12 0 000 .09l1.804 4.527a.047.047 0 01-.005.044.047.047 0 01-.039.02H33.52a.071.071 0 01-.07-.07l.001-2.954a.05.05 0 00-.05-.05l-7.593.002a.048.048 0 00-.044.03.05.05 0 00-.004.019l-.002 19.27c0 .054.017.06.052.018l5.704-6.975a.105.105 0 01.079-.037c1.214.01 2.426-.035 3.633.011.047.001.06-.013.038-.044-.01-.014-.027-.023-.051-.027-1.943-.349-3.388-1.954-3.292-3.96a3.856 3.856 0 014.185-3.672c3.101.268 4.64 3.985 2.547 6.365-.61.695-1.412 1.12-2.405 1.277-.032.005-.121.05.002.05 1.012.004 2.026.014 3.037-.015a.136.136 0 00.085-.035l4.947-4.399c.532-.471.935-.762 1.211-.873.983-.393 2.265.123 2.697 1.132.466 1.09.056 1.964-.758 2.704l-7 6.366a.264.264 0 00-.087.198v17.972c0 .013.005.024.014.033a.048.048 0 00.034.014l7.601.003a.052.052 0 01.052.049c.03.49.026.968-.012 1.436a.053.053 0 01-.016.035.051.051 0 01-.035.014H1.935a.049.049 0 01-.05-.049v-1.438a.05.05 0 01.014-.035.049.049 0 01.035-.015l7.576-.001a.062.062 0 00.062-.062L9.57 28.485a.128.128 0 00-.04-.093 9254.062 9254.062 0 01-6.867-6.243c-.47-.427-.767-.765-.891-1.012-.678-1.352.224-2.907 1.695-3.095.785-.1 1.339.249 1.962.803a6369.32 6369.32 0 015.127 4.552c.067.06.155.093.246.092l3.01-.009c.033 0 .033-.004.002-.012zM35.767 3.502a.06.06 0 00-.06-.06h-9.89a.06.06 0 00-.06.06v6.057a.06.06 0 00.06.06h9.89a.06.06 0 00.06-.06V3.502zm1.484 7.627l-2.201.032a.056.056 0 00-.037.014.046.046 0 00-.015.034l-.003 1.443a.04.04 0 00.013.03c.008.009.02.013.031.013h8.738a.055.055 0 00.031-.008.067.067 0 00.035-.05.066.066 0 00-.004-.033l-1.179-2.94a.122.122 0 010-.092l1.187-2.971a.06.06 0 00-.028-.075.058.058 0 00-.027-.006l-6.44-.001a.05.05 0 00-.05.05l-.003 4.508a.053.053 0 01-.014.036.047.047 0 01-.034.016zm-20.749 8.493a2.304 2.304 0 10-4.609 0 2.304 2.304 0 004.609 0zm21.568 0a2.305 2.305 0 10-4.61 0 2.305 2.305 0 004.61 0zm-5.385 7.243l.002 19.652a.064.064 0 00.04.06.065.065 0 00.026.004l2.136.001a.099.099 0 00.098-.099l.001-10.636c0-.01.004-.021.012-.029a.039.039 0 01.027-.011l1.43-.008a.088.088 0 01.064.027.097.097 0 01.027.067v10.645a.043.043 0 00.043.043l2.203-.004a.048.048 0 00.035-.015.052.052 0 00.014-.036v-18.37c0-.4-.012-.384.271-.641 2.533-2.3 5.064-4.602 7.594-6.906.509-.463-.105-1.33-.734-.963a5.523 5.523 0 00-.436.369l-5.592 4.968a.158.158 0 01-.105.04h-7.519a.101.101 0 00-.079.038c-1.829 2.235-3.657 4.47-5.484 6.706-.188.23-.3.402-.333.516-.13.435.4.894.824.72.107-.043.238-.154.39-.332 1.667-1.94 3.331-3.882 4.994-5.824.034-.04.05-.033.05.018zM14.96 35.871l.004 10.664a.041.041 0 00.04.041l2.23-.009a.05.05 0 00.035-.014.051.051 0 00.014-.035l.001-19.605c0-.081.027-.091.08-.03l4.912 5.73c.344.402.794.666 1.18.142.19-.257.094-.57-.108-.817-1.869-2.285-3.739-4.573-5.61-6.864a.104.104 0 00-.08-.038l-7.537-.016a.154.154 0 01-.102-.039 5076.91 5076.91 0 00-5.818-5.163c-.137-.12-.25-.196-.339-.225-.383-.123-.8.191-.788.587.009.302.211.465.429.66 1.413 1.267 3.936 3.563 7.571 6.887a.11.11 0 01.036.08v18.699a.05.05 0 00.048.05c.737.044 1.476.044 2.22.002a.052.052 0 00.049-.052V35.87a.055.055 0 01.05-.055 8.08 8.08 0 011.434.001.055.055 0 01.049.055zm11.877-1.306c-.329-.03-.674-.15-1.034-.359-.028-.016-.042-.008-.042.023l-.003 6.154a.043.043 0 01-.012.03.038.038 0 01-.028.01l-1.448-.007a.046.046 0 01-.033-.015.052.052 0 01-.014-.036l-.004-6.133a.037.037 0 00-.015-.029.036.036 0 00-.033-.005.774.774 0 00-.176.081c-1.059.655-2.135.188-2.86-.645-.738-.845-1.482-1.71-2.234-2.596-.053-.062-.08-.053-.08.03l.001 15.466c-.009-.009 0 .013 0 0 .01.01.035.048.048.048h12.252a.03.03 0 00.03-.03V31c0-.045-.014-.05-.044-.017-.699.823-1.4 1.644-2.104 2.461-.652.757-1.2 1.207-2.167 1.12z" fill="#fff" fill-opacity=".6"/><path d="M35.767 3.502a.06.06 0 00-.06-.06h-9.89a.06.06 0 00-.06.06v6.057a.06.06 0 00.06.06h9.89a.06.06 0 00.06-.06V3.502zm1.484 7.627l-2.201.032a.056.056 0 00-.037.014.046.046 0 00-.015.034l-.003 1.443a.04.04 0 00.013.03c.008.009.02.013.031.013h8.738a.055.055 0 00.031-.008.067.067 0 00.035-.05.067.067 0 00-.004-.033l-1.179-2.94a.122.122 0 010-.092l1.187-2.971a.06.06 0 00-.028-.075.058.058 0 00-.027-.006l-6.44-.001a.05.05 0 00-.05.05l-.003 4.508a.053.053 0 01-.014.036.048.048 0 01-.034.016z" stroke="#F3C469"/><path d="M37.012 5.47c.058 0 .098.043.166.046.154.005.281.072.43.086.301.03.603.028.906.028h.242c-.462.003-.91.092-1.37.092h-.693c-.136 0-.144.033-.025.115.121.084.092.287.092.42 0 .114-.066.172-.07.281-.003.143.004.338-.032.475-.04.15-.105.291-.105.448 0 .124-.018.234-.04.355-.033.173-.023.313-.093.484-.06.148-.08.31-.12.464-.03.119-.091.226-.091.355 0 .134.04.258.046.39.005.1-.002.202 0 .303.001.066.031.108.044.167.012.052.055.035.088.063.03.025.045.078.074.107.077.077.083-.137.087-.174.019-.175.028-.351.028-.527v-.38c0-.275.01.555-.059.82-.04.153-.021.358-.165.46-.064.044-.224.01-.299.01-.281 0-.578-.057-.859-.018-.25.035-.481.064-.734.064-.145 0-.133.061-.133.194 0 .412-.046.816-.046 1.229 0 .3.036.622-.001.919-.015.12-.09.192-.09.31 0 .11.047.229.16.273a.563.563 0 00.186.035c.03 0-.055-.023-.084-.023-.054 0-.285-.037-.319.016-.087.136.05.168.15.168.232 0 .463.023.696.023.133 0 .305-.072.436-.104.134-.032.243-.034.383-.034.356 0 .713.023 1.07.023.662 0 1.319.184 1.979.184.21 0 .37-.048.57-.101.138-.036.278-.023.413-.055.17-.04.382-.005.557-.005h1.766c.59 0 1.157-.115 1.746-.115h.778c.127 0 .316.083.426.15.193.12.17-.057.11-.226-.102-.281-.277-.423-.513-.566a.49.49 0 01-.138-.253v-.298c0-.185-.077-.315-.092-.482-.004-.054-.06-.087-.07-.145-.006-.037-.043-.093-.062-.125-.056-.097-.106-.206-.179-.292-.098-.116-.223-.243-.295-.375-.04-.072-.1-.188-.152-.245-.057-.062-.06-.144-.096-.218-.028-.057-.063-.083-.063-.149 0-.095.008-.2-.036-.287-.042-.083-.102-.126-.102-.228 0-.1.069-.192.092-.288.016-.07.038-.178.07-.241.037-.075.102-.162.114-.244.015-.095.11-.172.137-.271.034-.128.118-.25.16-.379a2.05 2.05 0 00.094-.496c.01-.11.086-.16.114-.251.032-.1.102-.246.16-.335.091-.135.122-.334.159-.49a2.94 2.94 0 01.264-.663c.046-.088.066-.107.162-.107.121 0 .157-.003.148-.138-.006-.084-.048-.275-.15-.275-.129 0-.202.052-.305.125-.159.111-.33.207-.484.324-.061.047-.112.125-.195.125-.116 0-.23-.011-.344-.036-.254-.055-.515-.095-.766-.16-.535-.137-1.13-.04-1.669.01-.51.046-1.037.048-1.547.048-.18 0-.394-.006-.551-.1-.014-.009.028-.015.043-.015.18-.002.36 0 .54 0h1.53c.555 0 1.11.013 1.664-.033.114-.01.267.01.379-.015.088-.02.158-.065.252-.067.163-.002.325 0 .487 0 .865 0-1.729-.022-2.593-.022h-2.563c-.15 0-.316-.019-.466.003-.201.03-.394.124-.594.165-.272.055-.548.065-.814.135-.065.017-.133.07-.195.098-.091.04-.322.096-.368.188-.04.08-.026.247-.032.339-.007.094.007.19-.012.283-.054.267-.054.541-.1.813-.033.202-.305 1.849-.183 1.854.211.008.328-.496.367-.653.01-.037.035-.201.092-.196.035.003.072.105.039.097-.049-.012-.06-.214-.067-.25-.048-.292-.023-.598-.023-.893 0-.225-.005-.442.046-.663.05-.213.007-.436.028-.652.02-.196.041-.382.041-.58V3.805c0-.177-.089-.34-.112-.514-.022-.16-.049-.33-.049-.492 0-.037-.004-.076.01-.111.013-.03.068-.063.058-.097-.03-.104-.916.073-1.025.078-.166.006-.333.001-.498.001-.353 0-.733-.014-1.075.066-.237.056-.54.003-.782.003-1.252 0-2.504.023-3.756.023m6.931 7.894h.23" stroke="#F3C469" stroke-linecap="round"/><path d="M35.59 10.541c-.242.115-.608.047-.856.01-.357-.052-.714-.093-1.067-.165-.319-.065-.653-.051-.977-.051-1.153 0-2.304-.023-3.457-.023" stroke="#F3C469" stroke-linecap="round"/><path d="M29.324 10.45c-.224-.072-.467-.04-.698-.064-.144-.015-.278-.051-.422-.051H26.33c-.306 0-.611-.023-.918-.023-.107 0-.418-.04-.319 0 .173.07.122.367.122.515 0 .103.008.209-.012.31-.025.12-.002.273-.039.386-.016.051-.068.099-.096.143-.063.095-.07.07-.077-.043-.021-.322-.005-.647-.005-.97 0-.297.046-.578.046-.876 0-.113.01-.182.047-.285.047-.132.034-.262.063-.396.034-.162.005-.364.005-.528 0-.234.03-.487-.056-.712-.097-.252-.112-.47-.162-.731-.081-.42.034-.88.034-1.303 0-.211.046-.394.046-.605 0-.107.028-.254-.007-.354-.043-.126-.172-.155-.177-.311-.005-.198-.056-.388-.07-.587-.01-.134-.021-.264-.021-.4 0-.167.051-.26.11-.413.084-.224.21-.455.21-.7 0-.427-.022.854-.022 1.281 0 .063-.01.137.005.2.052.22.103-.339.11-.384.027-.146.068-.284.137-.415.038-.07.105-.152.111-.234.009-.113-.108-.238-.195-.299a3.14 3.14 0 00-.173-.115c-.085-.051-.276-.045-.028-.045h4.417c.607 0-1.219-.064-1.824-.008-.283.026-.54.076-.825.076-.16 0-.319-.004-.478 0-.398.012-.796.023-1.196.023a.488.488 0 01-.199-.034c-.1-.037-.233-.02-.321-.063-.182-.085.394.084.581.156.515.197 1.046.194 1.59.194h2.338c.095 0 .08.025.08.115m-4.29 14.365c0 .967.046 1.93.046 2.897v1.51m.092.413c-.104.175-.059.454-.064.647-.009.33-.005.662-.005.992v1.613c0 .444-.033.866-.143 1.297-.077.304-.04.633-.04.946v.75c0 .199-.046.393-.046.592 0 .252-.02.503-.023.754-.002.082 0 .164 0 .246 0 .112.06-.125.069-.15m.412-2.111c0 .274.046.544.046.823v1.74c0 .008-.017.188-.021.127-.02-.3-.002-.607-.002-.907 0-.49-.023-.986.037-1.473.04-.316.067-.628.096-.945.02-.225.005-.457.005-.683 0-.167.034-.375-.002-.54-.08-.355-.315.353-.327.416-.06.341-.06.69-.06 1.034 0 .76-.005 1.518.022 2.277.023.656.069 1.307.069 1.964m-.069-.941v3.666c0 .06.015.14-.001.197-.026.09-.022-.189-.022-.283m.092.092c.006.163.074.31.087.474.02.277.005.562.005.84 0 .457.023.915.023 1.37 0 .407.046.854-.051 1.253-.056.227-.067.442-.088.673-.014.15-.068.293-.068.451v.286c0 .039-.007.085.001.123.004.016.02-.025.023-.04.024-.138.087-.22.16-.336" stroke="#F3C469" stroke-linecap="round"/></svg>