<svg width="50" height="50" viewBox="0 0 50 50" fill="none" xmlns="http://www.w3.org/2000/svg">
<path d="M13.8135 23.4678C13.4707 23.3789 13.0957 23.3281 12.7881 23.1992C9.59865 21.8604 9.51661 17.4492 12.7207 16.0684C15.4541 14.8906 18.4287 17.252 18.0049 20.1992C17.75 21.9736 16.3018 23.2373 14.5469 23.4541C14.5319 23.4561 14.5248 23.4635 14.5254 23.4766C14.5259 23.4821 14.5293 23.4873 14.5349 23.4911C14.5405 23.4949 14.5479 23.497 14.5557 23.4971L18.3897 23.5C18.4049 23.5 18.42 23.5035 18.4339 23.5103C18.4477 23.5171 18.46 23.5269 18.4697 23.5391L24.1563 30.4922C24.1979 30.5436 24.2188 30.5361 24.2188 30.4697V1.93457C24.2188 1.92654 24.222 1.91884 24.2276 1.91316C24.2333 1.90749 24.241 1.9043 24.249 1.9043H37.2744C37.2783 1.9043 37.2821 1.90508 37.2856 1.9066C37.2892 1.90812 37.2924 1.91035 37.2951 1.91316C37.2979 1.91597 37.3 1.91931 37.3015 1.92299C37.303 1.92666 37.3037 1.93059 37.3037 1.93457L37.3057 4.9502C37.3057 4.95822 37.3088 4.96592 37.3143 4.9716C37.3198 4.97728 37.3272 4.98047 37.335 4.98047H46.1133C46.1176 4.98053 46.1218 4.98161 46.1256 4.98361C46.1294 4.98561 46.1327 4.98846 46.1351 4.99193C46.1375 4.9954 46.139 4.99937 46.1394 5.0035C46.1399 5.00763 46.1393 5.01179 46.1377 5.01562L44.3213 9.55176C44.3094 9.58056 44.3091 9.61274 44.3203 9.6416L46.125 14.1689C46.1279 14.1761 46.129 14.1839 46.1282 14.1915C46.1273 14.1992 46.1246 14.2066 46.1203 14.2129C46.1159 14.2193 46.1101 14.2245 46.1032 14.2281C46.0964 14.2317 46.0888 14.2335 46.0811 14.2334H33.5195C33.5006 14.2334 33.4825 14.2259 33.4691 14.2125C33.4558 14.1991 33.4483 14.181 33.4483 14.1621L33.4502 11.209C33.4502 11.1958 33.445 11.1831 33.4356 11.1738C33.4263 11.1644 33.4136 11.1592 33.4004 11.1592L25.8067 11.1611C25.8004 11.1611 25.7941 11.1624 25.7883 11.1649C25.7825 11.1673 25.7773 11.1709 25.7728 11.1754C25.7684 11.18 25.7649 11.1854 25.7624 11.1913C25.76 11.1972 25.7588 11.2035 25.7588 11.21L25.7569 30.4805C25.7569 30.5339 25.7741 30.5397 25.8086 30.498L31.5127 23.5234C31.5225 23.5118 31.5347 23.5025 31.5483 23.4961C31.562 23.4896 31.5768 23.4863 31.5918 23.4863C32.8057 23.4951 34.0176 23.4512 35.2246 23.4971C35.2722 23.4984 35.2848 23.4837 35.2627 23.4531C35.2529 23.4388 35.236 23.4297 35.2119 23.4258C33.2695 23.0771 31.8242 21.4717 31.9199 19.4668C32.0244 17.2656 33.919 15.6055 36.1055 15.7939C39.2061 16.0625 40.7442 19.7793 38.6524 22.1592C38.0417 22.8538 37.2399 23.2796 36.2471 23.4365C36.2149 23.4414 36.126 23.4854 36.249 23.4854C37.2608 23.4902 38.2754 23.5 39.2861 23.4707C39.3177 23.4694 39.3477 23.4574 39.3711 23.4365C41.0209 21.9684 42.6699 20.502 44.3184 19.0371C44.8496 18.5658 45.2533 18.2747 45.5293 18.1641C46.5117 17.7715 47.794 18.2871 48.2256 19.2959C48.6924 20.3867 48.2822 21.2598 47.4678 22C45.167 24.0931 42.8337 26.2152 40.4678 28.3662C40.4404 28.3911 40.4185 28.4215 40.4036 28.4555C40.3886 28.4895 40.3809 28.5263 40.3809 28.5635V46.5361C40.3809 46.5486 40.3859 46.5605 40.3949 46.5693C40.4039 46.5781 40.416 46.583 40.4287 46.583L48.0303 46.5859C48.0435 46.5859 48.0563 46.591 48.0659 46.6C48.0755 46.6091 48.0813 46.6216 48.082 46.6348C48.112 47.1243 48.1081 47.6032 48.0703 48.0713C48.0693 48.0846 48.0635 48.097 48.0539 48.106C48.0443 48.1151 48.0316 48.1201 48.0186 48.1201H1.93458C1.92163 48.1201 1.90921 48.115 1.90006 48.1058C1.8909 48.0967 1.88575 48.0842 1.88575 48.0713L1.88478 46.6328C1.88478 46.6196 1.88992 46.6069 1.89908 46.5976C1.90824 46.5883 1.92066 46.583 1.93361 46.583L9.50978 46.582C9.51786 46.582 9.52586 46.5804 9.53332 46.5774C9.54079 46.5743 9.54757 46.5697 9.55328 46.564C9.55899 46.5583 9.56353 46.5515 9.56662 46.5441C9.56971 46.5366 9.5713 46.5286 9.5713 46.5205L9.57032 28.4854C9.5703 28.4678 9.56665 28.4504 9.55959 28.4343C9.55253 28.4182 9.54223 28.4036 9.52931 28.3916C7.22397 26.2979 4.93523 24.2171 2.6631 22.1494C2.19305 21.7217 1.89585 21.3841 1.7715 21.1367C1.09376 19.7852 1.99611 18.2295 3.46681 18.042C4.25197 17.9414 4.80568 18.291 5.42872 18.8447C7.15854 20.3792 8.86753 21.8965 10.5557 23.3965C10.6229 23.4568 10.7106 23.4899 10.8018 23.4893L13.8115 23.4805C13.8447 23.4798 13.8454 23.4756 13.8135 23.4678ZM35.7666 3.50195C35.7666 3.48615 35.7603 3.471 35.7492 3.45983C35.738 3.44866 35.7229 3.44238 35.7071 3.44238H25.8164C25.8006 3.44238 25.7855 3.44866 25.7743 3.45983C25.7631 3.471 25.7569 3.48615 25.7569 3.50195V9.55859C25.7569 9.57439 25.7631 9.58954 25.7743 9.60072C25.7855 9.61189 25.8006 9.61816 25.8164 9.61816H35.7071C35.7229 9.61816 35.738 9.61189 35.7492 9.60072C35.7603 9.58954 35.7666 9.57439 35.7666 9.55859V3.50195ZM37.251 11.1289L35.0498 11.1611C35.036 11.1614 35.0229 11.1665 35.0132 11.1755C35.0035 11.1844 34.9981 11.1965 34.9981 11.209L34.9951 12.6523C34.9951 12.6637 34.9998 12.6747 35.008 12.6827C35.0162 12.6908 35.0274 12.6953 35.0391 12.6953H43.7774C43.7882 12.6953 43.7988 12.6926 43.8083 12.6875C43.8179 12.6824 43.826 12.6751 43.8321 12.6662C43.8382 12.6572 43.842 12.6469 43.8431 12.6362C43.8443 12.6254 43.8429 12.6145 43.8389 12.6045L42.6602 9.66406C42.6482 9.63463 42.6482 9.6017 42.6602 9.57227L43.8467 6.60059C43.8502 6.59152 43.8515 6.58174 43.8504 6.57209C43.8494 6.56243 43.846 6.55321 43.8406 6.54521C43.8352 6.53721 43.8279 6.53069 43.8195 6.52622C43.811 6.52174 43.8016 6.51945 43.792 6.51953L37.3526 6.51855C37.3393 6.51855 37.3267 6.5238 37.3173 6.53314C37.308 6.54248 37.3027 6.55515 37.3027 6.56836L37.2988 11.0771C37.2989 11.0907 37.2939 11.1037 37.2849 11.1134C37.276 11.1231 37.2638 11.1286 37.251 11.1289ZM16.502 19.6221C16.502 19.0108 16.2592 18.4246 15.8269 17.9924C15.3947 17.5602 14.8085 17.3174 14.1973 17.3174C13.586 17.3174 12.9998 17.5602 12.5676 17.9924C12.1354 18.4246 11.8926 19.0108 11.8926 19.6221C11.8926 20.2333 12.1354 20.8195 12.5676 21.2517C12.9998 21.6839 13.586 21.9268 14.1973 21.9268C14.8085 21.9268 15.3947 21.6839 15.8269 21.2517C16.2592 20.8195 16.502 20.2333 16.502 19.6221ZM38.0703 19.6221C38.0703 19.0108 37.8275 18.4246 37.3953 17.9924C36.9631 17.5602 36.3769 17.3174 35.7656 17.3174C35.1544 17.3174 34.5682 17.5602 34.136 17.9924C33.7038 18.4246 33.461 19.0108 33.461 19.6221C33.461 20.2333 33.7038 20.8195 34.136 21.2517C34.5682 21.6839 35.1544 21.9268 35.7656 21.9268C36.3769 21.9268 36.9631 21.6839 37.3953 21.2517C37.8275 20.8195 38.0703 20.2333 38.0703 19.6221ZM32.6846 26.8652L32.6875 46.5166C32.6875 46.5251 32.6892 46.5334 32.6925 46.5413C32.6958 46.5491 32.7006 46.5562 32.7067 46.5622C32.7128 46.5682 32.72 46.5729 32.7279 46.5761C32.7358 46.5794 32.7444 46.5811 32.7529 46.5811L34.8887 46.582C34.9146 46.582 34.9394 46.5716 34.9577 46.5531C34.9761 46.5346 34.9863 46.5096 34.9863 46.4834L34.9883 35.8467C34.9883 35.8361 34.9924 35.8259 34.9997 35.8184C35.0071 35.8109 35.017 35.8066 35.0274 35.8066L36.4561 35.7988C36.4681 35.7987 36.48 35.801 36.4911 35.8057C36.5023 35.8103 36.5124 35.8172 36.5209 35.8259C36.5294 35.8347 36.5362 35.845 36.5409 35.8565C36.5455 35.8679 36.5479 35.8802 36.5479 35.8926V46.5381C36.5479 46.5495 36.5524 46.5604 36.5605 46.5685C36.5685 46.5765 36.5794 46.5811 36.5908 46.5811L38.794 46.5771C38.8069 46.5771 38.8193 46.5718 38.8285 46.5623C38.8376 46.5528 38.8428 46.5398 38.8428 46.5264C38.8428 40.4027 38.8428 34.279 38.8428 28.1553C38.8428 27.7568 38.8311 27.7715 39.1143 27.5146C41.6468 25.2145 44.1781 22.9128 46.708 20.6094C47.2168 20.1465 46.6026 19.2783 45.9736 19.6465C45.9313 19.6712 45.7861 19.7939 45.5381 20.0146C43.6748 21.6702 41.8109 23.3265 39.9463 24.9834C39.9174 25.0092 39.8799 25.0234 39.8408 25.0234L32.3223 25.0225C32.307 25.0225 32.292 25.0259 32.2783 25.0325C32.2646 25.0391 32.2526 25.0487 32.2432 25.0605C30.4144 27.2956 28.5863 29.5309 26.7588 31.7666C26.5707 31.9964 26.4597 32.1686 26.4258 32.2832C26.2959 32.7178 26.8252 33.1768 27.25 33.0039C27.3574 32.9603 27.4876 32.8493 27.6406 32.6709C29.3067 30.7308 30.971 28.7894 32.6338 26.8467C32.6677 26.8076 32.6846 26.8138 32.6846 26.8652ZM14.96 35.8711L14.9639 46.5352C14.9639 46.546 14.9682 46.5565 14.9759 46.5642C14.9836 46.5718 14.994 46.5762 15.0049 46.5762L17.2344 46.5674C17.2473 46.5671 17.2595 46.5618 17.2686 46.5525C17.2777 46.5432 17.283 46.5307 17.2832 46.5176L17.2842 26.9131C17.2842 26.8317 17.3109 26.8219 17.3643 26.8838C18.9932 28.7835 20.6305 30.6934 22.2764 32.6133C22.6201 33.0146 23.0703 33.2793 23.4561 32.7549C23.6455 32.498 23.5498 32.1846 23.3477 31.9385C21.4792 29.6533 19.6091 27.3652 17.7373 25.0742C17.7278 25.0626 17.7158 25.0531 17.7021 25.0465C17.6885 25.04 17.6735 25.0364 17.6582 25.0361L10.1211 25.0205C10.0833 25.0205 10.0468 25.0066 10.0186 24.9814C8.08693 23.264 6.1478 21.543 4.20118 19.8184C4.06447 19.6973 3.95151 19.6221 3.86232 19.5928C3.4795 19.4697 3.06251 19.7842 3.07423 20.1797C3.08302 20.4824 3.28517 20.6445 3.50294 20.8398C4.9157 22.1074 7.43947 24.403 11.0742 27.7266C11.0856 27.737 11.0947 27.7496 11.1009 27.7636C11.1072 27.7776 11.1104 27.7925 11.1104 27.8076V46.5059C11.1103 46.5188 11.1153 46.5313 11.1242 46.5408C11.1331 46.5502 11.1453 46.5559 11.1582 46.5566C11.8945 46.5996 12.6345 46.5999 13.3779 46.5576C13.3912 46.5569 13.4036 46.5511 13.4127 46.5415C13.4217 46.5318 13.4268 46.5191 13.4268 46.5059L13.4277 35.8701C13.4277 35.8566 13.4326 35.8435 13.4416 35.8334C13.4507 35.8233 13.4631 35.8169 13.4766 35.8154C13.9583 35.7725 14.4365 35.7728 14.9111 35.8164C14.9246 35.8179 14.9371 35.8243 14.9461 35.8344C14.9551 35.8445 14.9601 35.8576 14.96 35.8711ZM26.8369 34.5645C26.5082 34.5345 26.1634 34.415 25.8027 34.2061C25.7748 34.1898 25.7608 34.1976 25.7608 34.2295L25.7578 40.3828C25.7578 40.3883 25.7568 40.3937 25.7548 40.3987C25.7527 40.4038 25.7498 40.4083 25.746 40.4122C25.7423 40.416 25.7379 40.419 25.733 40.421C25.7282 40.423 25.723 40.424 25.7178 40.4238L24.2705 40.416C24.2578 40.416 24.2457 40.4107 24.2367 40.4011C24.2277 40.3916 24.2227 40.3787 24.2227 40.3652L24.2188 34.2324C24.2188 34.2267 24.2174 34.221 24.2148 34.2159C24.2121 34.2108 24.2083 34.2064 24.2036 34.203C24.199 34.1997 24.1935 34.1975 24.1879 34.1967C24.1822 34.1958 24.1764 34.1964 24.1709 34.1982C24.1091 34.2178 24.0505 34.2448 23.9951 34.2793C22.9365 34.9336 21.8604 34.4668 21.1348 33.6338C20.3972 32.7887 19.6527 31.9235 18.9014 31.0381C18.848 30.9756 18.8213 30.9854 18.8213 31.0674L18.8223 46.5342C18.8133 46.5252 18.8223 46.5469 18.8223 46.5342C18.8313 46.5432 18.8574 46.582 18.8701 46.582H31.1221C31.1301 46.582 31.1378 46.5788 31.1435 46.5732C31.1492 46.5675 31.1524 46.5598 31.1524 46.5518V31.001C31.1524 30.9561 31.1377 30.9505 31.1084 30.9844C30.4092 31.8073 29.7077 32.6276 29.0039 33.4453C28.3516 34.2021 27.8047 34.6523 26.8369 34.5645Z" fill="white" fill-opacity="0.6"/>
<path d="M35.7666 3.50195C35.7666 3.48615 35.7603 3.471 35.7492 3.45983C35.738 3.44866 35.7228 3.44238 35.707 3.44238H25.8164C25.8006 3.44238 25.7855 3.44866 25.7743 3.45983C25.7631 3.471 25.7568 3.48615 25.7568 3.50195V9.55859C25.7568 9.57439 25.7631 9.58954 25.7743 9.60072C25.7855 9.61189 25.8006 9.61816 25.8164 9.61816H35.707C35.7228 9.61816 35.738 9.61189 35.7492 9.60072C35.7603 9.58954 35.7666 9.57439 35.7666 9.55859V3.50195ZM37.251 11.1289L35.0498 11.1611C35.036 11.1614 35.0229 11.1665 35.0132 11.1755C35.0035 11.1844 34.9981 11.1965 34.9981 11.209L34.9951 12.6523C34.9951 12.6637 34.9998 12.6747 35.008 12.6827C35.0162 12.6908 35.0274 12.6953 35.0391 12.6953H43.7774C43.7882 12.6953 43.7988 12.6926 43.8083 12.6875C43.8179 12.6824 43.826 12.6751 43.8321 12.6662C43.8382 12.6572 43.8419 12.6469 43.8431 12.6362C43.8443 12.6254 43.8428 12.6145 43.8389 12.6045L42.6602 9.66406C42.6482 9.63463 42.6482 9.6017 42.6602 9.57227L43.8467 6.60059C43.8502 6.59152 43.8515 6.58174 43.8504 6.57209C43.8494 6.56243 43.846 6.55321 43.8406 6.54521C43.8352 6.53721 43.8279 6.53069 43.8195 6.52622C43.811 6.52174 43.8016 6.51945 43.792 6.51953L37.3525 6.51855C37.3393 6.51855 37.3267 6.5238 37.3173 6.53314C37.308 6.54248 37.3027 6.55515 37.3027 6.56836L37.2988 11.0771C37.2989 11.0907 37.2938 11.1037 37.2849 11.1134C37.2759 11.1231 37.2638 11.1286 37.251 11.1289Z" stroke="#F3C469"/>
<path d="M37.0121 5.46986C37.0699 5.46986 37.1098 5.51341 37.1778 5.51575C37.3319 5.52107 37.4591 5.58785 37.6088 5.60245C37.9094 5.63178 38.2114 5.6305 38.514 5.6305C38.8777 5.6305 39.2415 5.6305 39.6053 5.6305C39.8883 5.6305 39.0392 5.62925 38.7562 5.6305C38.2944 5.63253 37.8466 5.72229 37.3869 5.72229C37.1557 5.72229 36.9245 5.72229 36.6934 5.72229C36.5569 5.72229 36.5493 5.75479 36.6679 5.83703C36.789 5.92109 36.7597 6.12382 36.7597 6.25776C36.7597 6.3706 36.6938 6.42882 36.6908 6.53824C36.6869 6.68129 36.6935 6.87596 36.6577 7.01252C36.6183 7.16243 36.5531 7.30427 36.5531 7.46129C36.5531 7.58498 36.5347 7.69526 36.5123 7.81572C36.4801 7.98875 36.4897 8.12862 36.4205 8.30019C36.3609 8.44814 36.3403 8.61057 36.3007 8.76427C36.2701 8.88288 36.2089 8.9902 36.2089 9.1187C36.2089 9.253 36.2485 9.3766 36.2548 9.50883C36.2596 9.60969 36.2526 9.7113 36.2548 9.81226C36.2562 9.8775 36.2863 9.92028 36.2994 9.97927C36.311 10.0314 36.3536 10.0136 36.3874 10.0417C36.4176 10.067 36.4321 10.1197 36.4613 10.1488C36.538 10.2255 36.5442 10.0117 36.548 9.97545C36.5666 9.80037 36.5761 9.62381 36.5761 9.44763C36.5761 9.32099 36.5761 9.19434 36.5761 9.0677C36.5761 8.79332 36.5864 9.62319 36.5174 9.88875C36.4778 10.0413 36.4959 10.2462 36.3517 10.3477C36.2884 10.3922 36.1275 10.3579 36.0533 10.3579C35.7718 10.3579 35.4748 10.3006 35.194 10.3401C34.9438 10.3753 34.7126 10.4038 34.4597 10.4038C34.3153 10.4038 34.3271 10.465 34.3271 10.5976C34.3271 11.01 34.2812 11.4144 34.2812 11.8266C34.2812 12.1275 34.317 12.4489 34.2799 12.7459C34.2648 12.8668 34.1894 12.9382 34.1894 13.0557C34.1894 13.1669 34.2373 13.2847 34.35 13.3285C34.4044 13.3496 34.4781 13.3642 34.5362 13.3642C34.5653 13.3642 34.4811 13.3413 34.452 13.3413C34.3978 13.3413 34.1671 13.3035 34.1333 13.3566C34.0462 13.4934 34.1828 13.5248 34.2825 13.5248C34.515 13.5248 34.7458 13.5478 34.9786 13.5478C35.1119 13.5478 35.2843 13.4762 35.4146 13.4445C35.5487 13.4119 35.6582 13.4101 35.7984 13.4101C36.1537 13.4101 36.511 13.4331 36.868 13.4331C37.5296 13.4331 38.1866 13.6166 38.8467 13.6166C39.0561 13.6166 39.2166 13.5692 39.4179 13.5159C39.5552 13.4796 39.6946 13.4929 39.8297 13.4611C40.0005 13.4209 40.2121 13.456 40.3868 13.456C40.4926 13.456 40.5985 13.456 40.7043 13.456C41.1871 13.456 41.6698 13.456 42.1526 13.456C42.7428 13.456 43.3098 13.3413 43.8993 13.3413C44.1585 13.3413 44.4177 13.3413 44.677 13.3413C44.8045 13.3413 44.9932 13.4243 45.1028 13.4917C45.296 13.6106 45.2737 13.4343 45.2124 13.2648C45.111 12.984 44.9364 12.842 44.6999 12.6987C44.6524 12.6699 44.5622 12.5083 44.5622 12.4463C44.5622 12.3468 44.5622 12.2474 44.5622 12.1479C44.5622 11.9634 44.4852 11.8332 44.4704 11.666C44.4657 11.6122 44.4109 11.5791 44.4003 11.5207C44.3936 11.4838 44.3566 11.428 44.3378 11.3957C44.2815 11.2988 44.2322 11.1898 44.1593 11.1038C44.0611 10.9877 43.9363 10.8611 43.8636 10.7289C43.824 10.657 43.7643 10.541 43.7118 10.4841C43.6548 10.4223 43.6523 10.3398 43.6162 10.2661C43.588 10.2087 43.5525 10.1826 43.5525 10.117C43.5525 10.0222 43.5605 9.91755 43.5168 9.83011C43.4753 9.7472 43.4148 9.70417 43.4148 9.6019C43.4148 9.50214 43.484 9.40987 43.5066 9.31376C43.5229 9.24426 43.5449 9.13638 43.5767 9.0728C43.614 8.99819 43.6788 8.91138 43.6914 8.82929C43.7062 8.73354 43.8014 8.65708 43.8279 8.55773C43.862 8.42968 43.9457 8.30737 43.9885 8.17908C44.0458 8.00729 44.0645 7.86212 44.0816 7.68313C44.0921 7.57288 44.1678 7.52218 44.1963 7.43197C44.2279 7.33178 44.2976 7.18566 44.3569 7.09666C44.447 6.96159 44.4777 6.76266 44.515 6.60709C44.5707 6.37504 44.6685 6.15498 44.7789 5.94413C44.825 5.85615 44.8449 5.83703 44.9409 5.83703C45.0624 5.83703 45.0983 5.83361 45.0888 5.69934C45.0827 5.61508 45.0408 5.42396 44.9383 5.42396C44.81 5.42396 44.7375 5.4759 44.6336 5.5489C44.4755 5.65999 44.3039 5.75557 44.1504 5.87273C44.0888 5.91973 44.0375 5.99768 43.9553 5.99768C43.8392 5.99768 43.725 5.98653 43.6111 5.96198C43.3568 5.90712 43.0959 5.86729 42.8449 5.80261C42.3101 5.66478 41.7154 5.7625 41.176 5.81154C40.6659 5.85791 40.1391 5.85998 39.6295 5.85998C39.4496 5.85998 39.2354 5.85399 39.0775 5.75926C39.0645 5.75145 39.1056 5.74543 39.1208 5.74524C39.3009 5.74302 39.4813 5.74524 39.6614 5.74524C40.1714 5.74524 40.6813 5.74524 41.1913 5.74524C41.746 5.74524 42.3018 5.75766 42.8551 5.71209C42.9693 5.70268 43.1218 5.72167 43.2337 5.69679C43.3217 5.67724 43.3925 5.63178 43.4862 5.6305C43.6485 5.62827 43.8109 5.6305 43.9732 5.6305C44.8376 5.6305 42.2444 5.60755 41.38 5.60755C40.5258 5.60755 39.6716 5.60755 38.8174 5.60755C38.6666 5.60755 38.5008 5.58942 38.3508 5.61137C38.1498 5.64078 37.9566 5.73546 37.7566 5.77584C37.4847 5.83074 37.2089 5.84067 36.9432 5.91098C36.8779 5.92829 36.8102 5.98174 36.7482 6.00915C36.6565 6.04967 36.4256 6.10477 36.3797 6.19656C36.3397 6.27656 36.3542 6.44412 36.3479 6.53569C36.3414 6.63 36.3553 6.7253 36.3364 6.81873C36.2823 7.086 36.2822 7.36045 36.2369 7.63213C36.2034 7.83364 35.9306 9.48097 36.0533 9.48588C36.2643 9.49432 36.3812 8.99033 36.4205 8.83311C36.4298 8.79593 36.4549 8.63199 36.5123 8.63678C36.5469 8.63966 36.5843 8.74209 36.5506 8.73367C36.5022 8.72159 36.4903 8.5202 36.4843 8.48378C36.4362 8.19233 36.4613 7.88579 36.4613 7.59133C36.4613 7.36614 36.4558 7.14927 36.5072 6.92837C36.5569 6.71492 36.5144 6.49236 36.5353 6.27561C36.5541 6.0798 36.5761 5.89421 36.5761 5.69679C36.5761 5.15452 36.5761 4.61225 36.5761 4.06999C36.5761 3.98159 36.5761 3.8932 36.5761 3.8048C36.5761 3.62785 36.4871 3.46522 36.4639 3.291C36.4424 3.13025 36.4154 2.961 36.4154 2.79888C36.4154 2.76203 36.4112 2.72282 36.4256 2.68796C36.4378 2.65851 36.4927 2.62504 36.483 2.59107C36.4533 2.48717 35.5669 2.66448 35.458 2.66884C35.2924 2.67546 35.1252 2.67012 34.9595 2.67012C34.6073 2.67012 34.2274 2.65578 33.8847 2.73641C33.6481 2.79207 33.3445 2.73896 33.1032 2.73896C31.8506 2.73896 30.5992 2.76191 29.3472 2.76191" stroke="#F3C469" stroke-linecap="round"/>
<path d="M36.2777 10.6562H36.5072" stroke="#F3C469" stroke-linecap="round"/>
<path d="M35.5893 10.5415C35.3481 10.6557 34.9825 10.5885 34.7338 10.5517C34.3774 10.499 34.0197 10.4584 33.6667 10.386C33.3483 10.3206 33.0139 10.335 32.6901 10.335C31.5372 10.335 30.3858 10.312 29.2325 10.312" stroke="#F3C469" stroke-linecap="round"/>
<path d="M29.3243 10.4497C29.1004 10.3781 28.8574 10.4109 28.6256 10.3859C28.4823 10.3705 28.3479 10.3349 28.2036 10.3349C27.5793 10.3349 26.955 10.3349 26.3307 10.3349C26.025 10.3349 25.7198 10.312 25.4128 10.312C25.3065 10.312 24.9954 10.2725 25.0941 10.312C25.2669 10.3811 25.2164 10.6788 25.2164 10.8271C25.2164 10.9297 25.2245 11.0359 25.2037 11.1369C25.1788 11.2577 25.2019 11.4102 25.1654 11.5232C25.149 11.5741 25.0974 11.622 25.0686 11.666C25.0065 11.7606 24.9996 11.7363 24.9921 11.6226C24.9706 11.3014 24.987 10.9756 24.987 10.6537C24.987 10.3563 25.0329 10.0747 25.0329 9.77653C25.0329 9.66388 25.0437 9.59521 25.08 9.49222C25.1268 9.35965 25.1135 9.23003 25.1425 9.09572C25.1774 8.93448 25.1476 8.73169 25.1476 8.5679C25.1476 8.33369 25.1771 8.08057 25.0915 7.85649C24.9952 7.60439 24.9798 7.38577 24.9296 7.12468C24.8488 6.70462 24.964 6.24528 24.964 5.82171C24.964 5.61065 25.0099 5.4275 25.0099 5.21739C25.0099 5.11024 25.038 4.96286 25.0035 4.86296C24.9602 4.7372 24.8306 4.70847 24.8263 4.55188C24.821 4.35413 24.7699 4.16354 24.7562 3.96541C24.7469 3.8306 24.7345 3.701 24.7345 3.56509C24.7345 3.39793 24.7861 3.30474 24.8442 3.15201C24.9292 2.92841 25.0558 2.69716 25.0558 2.45207C25.0558 2.0249 25.0329 3.30621 25.0329 3.73338C25.0329 3.79633 25.0234 3.87026 25.038 3.93226C25.09 4.15358 25.1406 3.59423 25.1489 3.54851C25.1753 3.40303 25.2164 3.26526 25.2853 3.13416C25.3225 3.06341 25.3898 2.9823 25.3962 2.89957C25.4049 2.78685 25.2878 2.66221 25.2011 2.60124C25.1458 2.56228 25.086 2.52188 25.0278 2.4865C24.943 2.43501 24.7521 2.4406 24.9997 2.4406C25.9075 2.4406 26.8152 2.4406 27.723 2.4406C28.0842 2.4406 28.4454 2.4406 28.8066 2.4406C29.0098 2.4406 29.2129 2.4406 29.4161 2.4406C30.0238 2.4406 28.1981 2.37748 27.5929 2.43295C27.3101 2.45887 27.0529 2.50945 26.768 2.50945C26.6089 2.50945 26.449 2.50477 26.2899 2.50945C25.8921 2.52115 25.4938 2.53239 25.0941 2.53239C25.0151 2.53239 24.9687 2.52555 24.8952 2.49797C24.7959 2.46074 24.6623 2.47711 24.5739 2.4355C24.3924 2.35008 24.9679 2.51931 25.1553 2.59104C25.6703 2.78824 26.2012 2.78483 26.7451 2.78483C27.4331 2.78483 28.1212 2.78483 28.8092 2.78483C28.9006 2.78483 28.9919 2.78483 29.0833 2.78483C29.178 2.78483 29.1636 2.81 29.1636 2.89957" stroke="#F3C469" stroke-linecap="round"/>
<path d="M24.8722 17.2655C24.8722 18.2324 24.9181 19.1944 24.9181 20.1621C24.9181 20.6653 24.9181 21.1685 24.9181 21.6717" stroke="#F3C469" stroke-linecap="round"/>
<path d="M25.0099 22.0847C24.906 22.26 24.9514 22.5389 24.9462 22.7324C24.9371 23.0629 24.9411 23.3937 24.9411 23.7243C24.9411 24.2619 24.9411 24.7995 24.9411 25.3371C24.9411 25.7814 24.9081 26.2031 24.7983 26.6337C24.7206 26.9381 24.7575 27.2669 24.7575 27.5797C24.7575 27.8295 24.7575 28.0794 24.7575 28.3293C24.7575 28.5288 24.7116 28.7226 24.7116 28.9222C24.7116 29.1741 24.6926 29.4251 24.6886 29.6756C24.6873 29.7576 24.6886 29.8397 24.6886 29.9217C24.6886 30.0341 24.7481 29.7975 24.7575 29.7725" stroke="#F3C469" stroke-linecap="round"/>
<path d="M25.1706 27.6613C25.1706 27.9355 25.2165 28.2053 25.2165 28.4836C25.2165 29.0637 25.2165 29.6438 25.2165 30.2239C25.2165 30.2319 25.1988 30.4117 25.1948 30.3514C25.1748 30.0515 25.1935 29.744 25.1935 29.4436C25.1935 28.954 25.1704 28.4581 25.2305 27.9711C25.2694 27.6552 25.2973 27.343 25.3261 27.0264C25.3466 26.801 25.3312 26.569 25.3312 26.343C25.3312 26.1759 25.3654 25.9678 25.3287 25.8024C25.2499 25.4481 25.0136 26.1559 25.0023 26.2193C24.9412 26.56 24.9411 26.9085 24.9411 27.2533C24.9411 28.0126 24.937 28.7714 24.964 29.5303C24.9874 30.1863 25.0329 30.8372 25.0329 31.4937" stroke="#F3C469" stroke-linecap="round"/>
<path d="M24.964 30.5527C24.964 31.5616 24.964 32.5705 24.964 33.5794C24.964 33.7927 24.964 34.0061 24.964 34.2194C24.964 34.2787 24.9791 34.3587 24.9627 34.4158C24.9367 34.5067 24.9411 34.2274 24.9411 34.1327" stroke="#F3C469" stroke-linecap="round"/>
<path d="M25.0329 34.2246C25.0391 34.3881 25.107 34.5358 25.1196 34.6989C25.1409 34.9764 25.1247 35.2608 25.1247 35.5391C25.1247 35.9961 25.1476 36.4541 25.1476 36.9096C25.1476 37.3163 25.1939 37.7626 25.0966 38.1616C25.0411 38.3892 25.0296 38.604 25.0086 38.8347C24.995 38.985 24.9411 39.1282 24.9411 39.2861C24.9411 39.3813 24.9411 39.4765 24.9411 39.5717C24.9411 39.6107 24.9339 39.6574 24.9423 39.6953C24.9457 39.7106 24.9626 39.6699 24.9653 39.6545C24.9895 39.5171 25.052 39.4342 25.1247 39.3192" stroke="#F3C469" stroke-linecap="round"/>
</svg>
