<svg width="50" height="50" viewBox="0 0 50 50" fill="none" xmlns="http://www.w3.org/2000/svg"><g clip-path="url(#clip0_313_2424)" fill-rule="evenodd" clip-rule="evenodd"><path d="M-.092.26c-.203.26-.205.32-.205 8.01v7.748l.243.242.242.243h14.05l.242-.243.243-.242V8.269c0-7.69-.002-7.75-.205-8.009L14.313 0H.113l-.205.26zM40.044.238c-.103.13-.287.68-.41 1.222l-.223.984-.4.132c-.22.073-.757.367-1.193.654l-.793.522-1.022-.312c-.82-.25-1.067-.29-1.255-.204-.307.14-1.547 2.24-1.547 2.621 0 .221.162.435.764 1.01l.764.73.008 1.414.008 1.414-.772.725c-.566.532-.772.791-.772.973 0 .283 1.01 2.136 1.348 2.475.293.293.544.283 1.626-.065l.898-.289.46.354c.253.194.783.507 1.178.695.494.236.732.408.766.553l.238 1.047c.117.514.257.885.365.963.124.09.587.128 1.589.128 1.228 0 1.437-.023 1.59-.177.103-.102.275-.604.406-1.18l.227-1.001.73-.347c.402-.191.933-.501 1.18-.69l.449-.343.762.245c.42.135.946.27 1.17.3.373.05.426.027.656-.279.479-.636 1.26-2.104 1.26-2.368 0-.276-.172-.487-1.04-1.28l-.492-.45L48.57 9l.004-1.415.761-.726c.574-.546.762-.79.762-.986 0-.292-1.002-2.14-1.347-2.487-.291-.29-.441-.283-1.566.077l-.94.301-.47-.358a8.286 8.286 0 00-1.18-.7l-.71-.343-.225-1.005c-.13-.58-.299-1.08-.4-1.181C43.105.023 42.893 0 41.656 0c-1.388 0-1.43.006-1.613.238zM13.34 8.25v6.868H1.087V1.383h12.252v6.868zm29-6.645l.207.914c.178.79.316.983.82 1.146.585.19 1.226.541 1.772.973.763.603.826.613 1.894.293.516-.155.964-.25.997-.21.033.039.177.277.321.53l.262.46-.756.684c-.728.658-.755.698-.72 1.071.067.709.047 2.656-.03 3.007-.075.336-.055.366.71 1.09l.785.745-.297.515c-.164.284-.328.516-.364.516-.036 0-.422-.11-.857-.246-.434-.135-.901-.246-1.038-.247-.15 0-.462.176-.79.447-.299.247-.762.547-1.03.667s-.713.33-.988.466l-.501.247-.237 1.017-.236 1.017-.604-.029-.603-.029-.23-.938c-.245-1.007-.377-1.23-.787-1.333-.501-.126-1.266-.542-1.9-1.035-.38-.294-.74-.496-.888-.496-.135 0-.602.111-1.037.246-.435.135-.818.246-.853.246-.034 0-.185-.235-.335-.522l-.273-.523.762-.748c.76-.745.762-.75.681-1.133-.105-.498-.105-2.348.001-2.848l.082-.389-.772-.728-.772-.728.29-.535c.325-.602.22-.588 1.458-.195.796.252.989.223 1.506-.231.45-.396.951-.688 1.646-.96.337-.132.692-.312.79-.4.103-.095.266-.547.392-1.09l.214-.927h.628c.57 0 .633.02.68.223zM4.943 2.38c-.311.128-.395.263-.396.643-.003.608.103.633 2.683.633 2.126 0 2.338-.015 2.487-.18.23-.254.208-.738-.044-.966-.189-.171-.399-.19-2.347-.209-1.271-.013-2.238.02-2.383.079zm35.432 2.653c-1.496.492-2.545 1.714-2.838 3.304-.326 1.768.666 3.644 2.342 4.428 1.621.759 3.449.44 4.714-.822a4.157 4.157 0 00-1.187-6.731c-.87-.408-2.113-.481-3.031-.179zm-38.103.105c-.196.197-.26.643-.122.85.21.316.522.336 5.093.336 4.492 0 4.593-.004 4.848-.205a.647.647 0 00.063-.98c-.192-.193-.33-.198-4.941-.198s-4.749.005-4.94.197zM42.871 6.44c2.06.996 2.143 3.957.14 5.047-1.36.74-3.08.236-3.834-1.123-.262-.474-.294-.624-.293-1.372.001-.67.044-.92.214-1.235.38-.706 1.187-1.342 1.959-1.543.448-.118 1.33-.007 1.814.226zM2.238 7.79c-.217.24-.208.736.017.94.163.147.654.163 4.985.163h4.804l.153-.22c.196-.279.196-.565 0-.845l-.153-.22H7.223c-4.545 0-4.83.011-4.985.181zm.034 2.586a.794.794 0 00-.197.494.8.8 0 00.197.494c.192.192.33.197 4.941.197s4.749-.005 4.94-.197c.255-.254.255-.735 0-.989-.191-.192-.329-.197-4.94-.197-4.611 0-4.749.005-4.94.197zm-.034 2.65c-.217.24-.208.737.017.94.163.148.653.164 4.975.164 4.52 0 4.804-.01 4.958-.18.205-.227.21-.6.01-.884l-.154-.22H7.223c-4.545 0-4.83.01-4.985.18zm21.526 2.536c-1.758.474-3.265 1.475-4.454 2.958-2.103 2.622-2.536 5.615-1.203 8.308.162.326.393.726.515.89.18.242.232.48.285 1.304.08 1.228.408 2.335.936 3.15.4.619 1.328 1.528 1.815 1.78l.291.15-.244.415-.244.414-1.862.058c-2.077.064-2.684.197-3.883.849-1.463.795-2.498 1.87-3.219 3.342-.764 1.56-.783 1.71-.786 6.357l-.002 4.085.233.189c.227.184.575.189 13.069.189 12.823 0 12.835 0 13.038-.203.2-.2.203-.273.17-4.472-.033-4.152-.04-4.286-.263-4.96-.368-1.111-.968-2.165-1.658-2.91-.759-.819-1.323-1.247-2.272-1.723-1.13-.567-2.088-.75-3.938-.752l-1.58-.001-.238-.416-.237-.416.286-.199c.158-.11.602-.511.986-.893 1.106-1.098 1.579-2.236 1.684-4.053.05-.845.112-1.117.431-1.877 1.275-3.037 1.532-5.432.745-6.967-.428-.837-1.197-1.504-2.045-1.773-.266-.084-.446-.243-.669-.59-.67-1.046-1.87-1.938-3.019-2.246-.627-.167-2.025-.161-2.668.013zm2.276 1.29c1.026.268 1.723.819 2.458 1.943.383.586.443.634 1.048.825 1.35.428 1.926 1.599 1.678 3.41-.157 1.147-.204 1.192-.406.395-.212-.835-.614-1.624-1.225-2.402-.491-.626-.804-.766-1.276-.573-1.324.543-2.027.728-2.933.773-1.18.059-2.063-.089-3.163-.527-.47-.187-.942-.34-1.05-.34-.26 0-.972.74-1.417 1.473-.415.684-.655 1.397-.826 2.455l-.123.765-.077-.672c-.15-1.31.183-2.727.954-4.06.603-1.043 1.984-2.373 3.024-2.911 1.275-.66 2.283-.827 3.334-.553zm-20.507 2.87c-2.425.409-4.115 1.573-5.09 3.505-.555 1.098-.685 1.677-.685 3.058 0 1.807.249 2.445 1.578 4.051.877 1.059 1.248 2.193 1.388 4.238.103 1.508-.18 1.394 3.451 1.394 3.631 0 3.35.114 3.452-1.394.147-2.146.5-3.164 1.543-4.436 1.187-1.447 1.416-2.078 1.42-3.903.002-1.312-.133-1.922-.656-2.96-.832-1.647-2.487-2.977-4.227-3.394-.519-.125-1.817-.22-2.174-.16zm2.314 1.616c2.067.72 3.417 2.66 3.417 4.91 0 1.137-.254 1.89-.932 2.754-1.383 1.763-1.752 2.616-1.967 4.543l-.121 1.09-2.097.026-2.096.027v-.422c-.001-.697-.28-2.204-.534-2.878-.282-.749-.535-1.16-1.284-2.09-.865-1.072-1.07-1.565-1.125-2.7-.077-1.617.305-2.754 1.286-3.828.79-.865 1.69-1.39 2.793-1.628.62-.135 2.004-.032 2.66.197zm14.56.857c1.716.56 4.099.487 5.634-.172.523-.223.584-.19 1 .543.535.943.62 1.407.674 3.719.064 2.693-.042 3.65-.51 4.6-.711 1.443-2.356 2.594-3.847 2.69a4.843 4.843 0 01-4.673-2.708l-.38-.767-.03-2.92c-.037-3.339.02-3.726.689-4.761.301-.467.424-.584.556-.528.093.039.492.176.887.305zm-16.701.703c-.225.248-.22.671.01.901.1.101.4.213.667.25 1.027.139 1.77.858 1.884 1.823.078.657.293.94.714.94.482 0 .653-.239.65-.906-.006-1.077-.882-2.355-1.973-2.879-.683-.328-1.711-.396-1.952-.129zm28.7.92l-.217.202.002 5.258c0 2.892.034 5.306.074 5.366.217.325.478.336 8.025.336h7.52l.243-.242.243-.243V24.102l-.243-.243-.242-.242h-7.595c-7.506 0-7.597.002-7.81.201zm11.333 2.294c-.898.611-2.06 1.394-2.584 1.739l-.952.627-2.45-1.653c-1.348-.909-2.493-1.691-2.545-1.739-.053-.049 2.108-.086 5.035-.086h5.129l-1.633 1.112zm-6.889 1.721c2.01 1.355 3.218 2.108 3.378 2.108.226 0 2.735-1.62 5.721-3.694l.964-.67v8.02h-13.44v-4.008c0-3.179.026-3.993.124-3.935.068.04 1.532 1.02 3.253 2.18zM25 34.83c.625 0 1.291-.023 1.48-.049.327-.045.359-.023.589.41l.243.459-.478.826c-1.737 3.005-1.855 3.185-1.964 2.99a455.79 455.79 0 00-1.171-2.007l-1.066-1.819.261-.48c.256-.469.268-.477.615-.403.195.041.866.074 1.49.073zm-2.03 4.053c.948 1.626 1.583 2.611 1.727 2.684.523.261.663.096 2.286-2.697l1.524-2.625 1.63.05c1.819.057 2.337.165 3.424.716 1.933.978 3.177 2.918 3.276 5.109l.043.963h-5.137l-.044-.608c-.035-.481-.091-.645-.27-.79-.293-.237-.511-.231-.833.022l-.26.205v6.705H19.663v-3.205c0-1.854-.041-3.313-.097-3.46-.198-.52-.95-.585-1.171-.102-.064.14-.116.474-.116.744v.489h-5.266l.056-.875c.063-.959.402-2.12.836-2.862.366-.623 1.32-1.619 1.956-2.041.622-.413 1.621-.81 2.351-.933.282-.048 1.13-.08 1.884-.072l1.372.014 1.5 2.57zM3.322 36.667a.646.646 0 00-.063.981c.188.188.33.198 2.915.198 2.586 0 2.727-.01 2.915-.198a.646.646 0 00-.062-.98c-.249-.196-.38-.206-2.853-.206-2.472 0-2.603.01-2.852.205zm.692 1.878a.646.646 0 00-.063.98c.185.186.33.198 2.223.198 1.894 0 2.039-.012 2.224-.197a.646.646 0 00-.063-.981c-.243-.191-.388-.205-2.16-.205-1.773 0-1.918.014-2.161.205zM18.28 46.54v2.076h-5.237v-4.151h5.237v2.075zm18.577 0v2.076h-5.139v-4.151h5.14v2.075z" fill="#fff" fill-opacity=".6"/><path d="M23.764 15.561c-1.759.475-3.265 1.476-4.454 2.958-2.103 2.623-2.537 5.616-1.203 8.309.162.326.393.726.514.89.181.242.233.48.286 1.304.08 1.228.408 2.335.936 3.15.4.619 1.328 1.528 1.815 1.78l.291.15-.244.415-.244.414-1.862.058c-2.077.064-2.684.197-3.883.849-1.463.795-2.498 1.87-3.219 3.342-.764 1.56-.783 1.71-.786 6.357l-.002 4.085.233.189c.227.184.575.189 13.069.189 12.823 0 12.835 0 13.038-.203.2-.2.203-.273.17-4.472-.033-4.152-.04-4.286-.263-4.96-.368-1.111-.968-2.165-1.658-2.91-.759-.819-1.323-1.247-2.272-1.723-1.13-.567-2.088-.75-3.938-.752l-1.58-.001-.238-.416-.238-.416.287-.199c.158-.11.602-.511.986-.893 1.106-1.098 1.579-2.236 1.684-4.053.05-.845.112-1.117.431-1.877 1.275-3.037 1.532-5.432.745-6.967-.428-.837-1.198-1.504-2.045-1.773-.266-.084-.446-.243-.669-.59-.67-1.046-1.87-1.938-3.019-2.246-.627-.167-2.025-.161-2.668.012zm2.276 1.292c1.026.267 1.723.818 2.458 1.942.383.586.443.633 1.048.825 1.35.428 1.926 1.598 1.678 3.41-.157 1.147-.204 1.192-.406.395-.212-.835-.614-1.624-1.225-2.402-.491-.626-.804-.766-1.276-.573-1.324.543-2.027.728-2.933.773-1.18.059-2.063-.089-3.164-.528-.468-.186-.94-.34-1.05-.34-.259 0-.972.742-1.416 1.474-.415.684-.655 1.397-.826 2.455l-.123.765-.077-.672c-.15-1.31.183-2.727.954-4.06.603-1.043 1.984-2.373 3.024-2.911 1.275-.66 2.283-.827 3.334-.553zm-3.633 5.342c1.716.56 4.099.487 5.634-.172.523-.223.584-.19 1 .543.535.943.62 1.407.674 3.719.064 2.693-.042 3.65-.51 4.6-.711 1.443-2.356 2.594-3.847 2.69a4.843 4.843 0 01-4.673-2.708l-.38-.767-.03-2.92c-.037-3.339.02-3.726.689-4.761.301-.467.424-.584.556-.528.093.039.492.176.887.304zM25 34.83c.625 0 1.291-.023 1.48-.049.327-.045.359-.023.589.41l.243.459-.478.826c-1.737 3.005-1.855 3.185-1.964 2.99a455.79 455.79 0 00-1.171-2.007l-1.066-1.819.261-.48c.256-.469.268-.477.615-.403.195.041.866.074 1.49.073zm-2.03 4.053c.948 1.626 1.583 2.611 1.727 2.684.523.261.663.096 2.286-2.697l1.524-2.625 1.63.05c1.819.057 2.337.165 3.424.716 1.933.978 3.177 2.918 3.276 5.108l.043.964h-5.137l-.044-.608c-.035-.481-.091-.645-.27-.79-.293-.237-.512-.231-.833.022l-.26.204v6.706H19.663V45.41c0-1.853-.04-3.312-.096-3.46-.198-.52-.95-.584-1.171-.1-.064.139-.116.473-.116.742v.49h-5.266l.056-.875c.063-.959.402-2.12.836-2.862.366-.623 1.32-1.619 1.956-2.041.621-.413 1.621-.81 2.351-.933.282-.048 1.13-.08 1.884-.072l1.372.014 1.5 2.57zm-4.69 7.658v2.076h-5.237v-4.151h5.237v2.075zm18.577 0v2.076h-5.139v-4.151h5.14v2.075z" fill="#F3C469"/></g><defs><clipPath id="clip0_313_2424"><path fill="#fff" d="M0 0h50v50H0z"/></clipPath></defs></svg>