<svg width="50" height="50" viewBox="0 0 50 50" fill="none" xmlns="http://www.w3.org/2000/svg">
<g clip-path="url(#clip0_313_2424)">
<path fill-rule="evenodd" clip-rule="evenodd" d="M-0.0920331 0.260375C-0.295294 0.518775 -0.296875 0.579941 -0.296875 8.26877V16.0169L-0.0542861 16.2594L0.188204 16.502H7.21301H14.2378L14.4803 16.2594L14.7229 16.0169V8.26877C14.7229 0.579941 14.7213 0.518775 14.518 0.260375L14.3133 0H7.21301H0.11271L-0.0920331 0.260375ZM40.0442 0.237846C39.9414 0.368676 39.7567 0.918478 39.6341 1.45978L39.4109 2.44387L39.0108 2.57589C38.7909 2.64852 38.2539 2.94269 37.8176 3.22974L37.0245 3.75158L36.0033 3.44042C35.1822 3.19022 34.9363 3.1501 34.7482 3.23587C34.4408 3.37589 33.2011 5.47638 33.2011 5.85711C33.2011 6.07806 33.3632 6.29249 33.9649 6.86739L34.7287 7.59733L34.7368 9.01107L34.745 10.4249L33.9731 11.1499C33.4067 11.6818 33.2011 11.941 33.2011 12.1232C33.2011 12.4063 34.2104 14.2594 34.5491 14.598C34.842 14.8909 35.0935 14.8809 36.1746 14.5332L37.073 14.2444L37.5333 14.5977C37.7865 14.7921 38.3165 15.105 38.711 15.2933C39.2051 15.5291 39.4434 15.7012 39.4766 15.8464C39.5032 15.9625 39.6104 16.4333 39.7149 16.8928C39.8318 17.407 39.9721 17.7776 40.0798 17.8562C40.2036 17.9468 40.6675 17.9842 41.6686 17.9842C42.8971 17.9842 43.1058 17.961 43.2599 17.8068C43.3618 17.7049 43.5342 17.2028 43.6646 16.6276L43.8917 15.6258L44.6223 15.2788C45.0242 15.0879 45.5549 14.7776 45.8017 14.5891L46.2506 14.2463L47.0134 14.4911C47.433 14.6257 47.9591 14.7604 48.1826 14.7903C48.5561 14.8404 48.6091 14.818 48.839 14.5123C49.3175 13.8763 50.0984 12.4078 50.0984 12.1441C50.0984 11.8685 49.9269 11.6573 49.0592 10.864L48.5668 10.4137L48.5706 8.99951L48.5745 7.58528L49.3364 6.85949C49.9103 6.31285 50.0984 6.06937 50.0984 5.87312C50.0984 5.58073 49.0965 3.73221 48.7505 3.38617C48.4596 3.09536 48.3097 3.10267 47.1846 3.46314L46.2448 3.76413L45.7754 3.40563C45.5172 3.2084 44.9861 2.89318 44.5952 2.70514L43.8845 2.36324L43.6601 1.3582C43.5307 0.778261 43.3611 0.278557 43.2592 0.176581C43.1059 0.0233202 42.8942 0 41.657 0C40.2686 0 40.2264 0.00622529 40.0442 0.237846ZM13.3395 8.25099V15.1186H7.21301H1.08652V8.25099V1.3834H7.21301H13.3395V8.25099ZM42.3397 1.60573C42.3679 1.72806 42.4611 2.13933 42.5468 2.51976C42.7247 3.30988 42.8627 3.50296 43.3663 3.66591C43.952 3.85543 44.5928 4.20711 45.1392 4.63893C45.9022 5.24209 45.9646 5.25178 47.0335 4.93152C47.5489 4.77717 47.9973 4.68271 48.03 4.72164C48.0628 4.76057 48.2074 4.99931 48.3513 5.25208L48.613 5.71166L47.8568 6.39555C47.1286 7.05405 47.1019 7.09368 47.1373 7.46749C47.2043 8.17599 47.1845 10.123 47.1069 10.4738C47.0325 10.8097 47.0521 10.8398 47.8163 11.564L48.6022 12.3089L48.3046 12.8244C48.1409 13.1079 47.9773 13.3399 47.941 13.3399C47.9047 13.3399 47.5193 13.2294 47.0845 13.0944C46.6498 12.9593 46.1826 12.8481 46.0463 12.8473C45.8964 12.8464 45.5842 13.023 45.2558 13.2945C44.9573 13.5412 44.4938 13.8414 44.226 13.9615C43.9581 14.0816 43.5134 14.291 43.2378 14.4269L42.7367 14.6739L42.5004 15.6911L42.2639 16.7083L41.6604 16.6792L41.0569 16.6502L40.8275 15.7115C40.5817 14.705 40.4498 14.4819 40.04 14.3791C39.5389 14.2534 38.7742 13.837 38.1392 13.3441C37.7598 13.0496 37.3991 12.8478 37.2525 12.8482C37.1167 12.8485 36.6498 12.9593 36.215 13.0944C35.7802 13.2294 35.3966 13.3399 35.3625 13.3399C35.3284 13.3399 35.1774 13.1048 35.027 12.8176L34.7535 12.2953L35.5161 11.5473C36.2757 10.8024 36.2784 10.7978 36.1974 10.4145C36.0921 9.91551 36.0925 8.0665 36.1982 7.56581L36.2802 7.17698L35.5083 6.44891L34.7364 5.72075L35.026 5.18557C35.3512 4.58409 35.2463 4.59812 36.4845 4.99081C37.2804 5.24308 37.4729 5.21354 37.9899 4.75958C38.4406 4.36393 38.9415 4.07184 39.6364 3.79951C39.9728 3.66769 40.3279 3.48755 40.4257 3.39911C40.5294 3.30514 40.6922 2.85326 40.8176 2.31087L41.0319 1.3834H41.66C42.2305 1.3834 42.293 1.40385 42.3397 1.60573ZM4.94305 2.37994C4.63178 2.50771 4.54838 2.64298 4.5465 3.02322C4.54354 3.63103 4.65006 3.65613 7.2302 3.65613C9.35589 3.65613 9.56785 3.64071 9.71745 3.4754C9.9469 3.22184 9.92477 2.73824 9.67318 2.51038C9.48405 2.33903 9.27397 2.32026 7.32635 2.30099C6.05471 2.28834 5.0883 2.32045 4.94305 2.37994ZM40.3748 5.0332C38.8791 5.5253 37.8297 6.74694 37.5367 8.33706C37.2109 10.1048 38.2035 11.9811 39.879 12.7652C41.5002 13.5239 43.328 13.205 44.5928 11.943C46.6541 9.88636 46.048 6.44901 43.4061 5.21196C42.5353 4.80435 41.2933 4.73103 40.3748 5.0332ZM2.27229 5.13834C2.07575 5.33488 2.01172 5.78063 2.15026 5.98814C2.36083 6.30356 2.67239 6.32411 7.24255 6.32411C11.7345 6.32411 11.836 6.31986 12.091 6.11927C12.4095 5.86877 12.4381 5.42273 12.1537 5.13834C11.9616 4.94624 11.8244 4.94071 7.21301 4.94071C2.60164 4.94071 2.46439 4.94624 2.27229 5.13834ZM42.8709 6.44041C44.9316 7.43626 45.014 10.3973 43.0115 11.4873C41.6511 12.2277 39.9306 11.7235 39.1773 10.3635C38.9151 9.89002 38.8831 9.74041 38.8842 8.99209C38.8851 8.32204 38.9283 8.07223 39.0981 7.75692C39.478 7.05119 40.2848 6.41541 41.0569 6.21354C41.5048 6.09634 42.3875 6.20682 42.8709 6.44041ZM2.2382 7.78943C2.02111 8.02925 2.0302 8.52599 2.2554 8.72974C2.41834 8.87717 2.90856 8.89328 7.23988 8.89328H12.0437L12.1975 8.67362C12.393 8.39447 12.393 8.10751 12.1975 7.82836L12.0437 7.6087H7.22269C2.67773 7.6087 2.39235 7.61907 2.2382 7.78943ZM2.27229 10.3755C2.16251 10.4853 2.07467 10.7048 2.07467 10.8696C2.07467 11.0343 2.16251 11.2539 2.27229 11.3636C2.46439 11.5557 2.60164 11.5613 7.21301 11.5613C11.8244 11.5613 11.9616 11.5557 12.1537 11.3636C12.4078 11.1096 12.4078 10.6295 12.1537 10.3755C11.9616 10.1834 11.8244 10.1779 7.21301 10.1779C2.60164 10.1779 2.46439 10.1834 2.27229 10.3755ZM2.2382 13.0266C2.02111 13.2664 2.0302 13.7631 2.2554 13.9669C2.41834 14.1143 2.90787 14.1304 7.2302 14.1304C11.7492 14.1304 12.0337 14.1201 12.1878 13.9497C12.3933 13.7226 12.3974 13.3509 12.1975 13.0655L12.0437 12.8458H7.22269C2.67773 12.8458 2.39235 12.8562 2.2382 13.0266ZM23.7644 15.5615C22.0055 16.0363 20.499 17.0368 19.3099 18.5195C17.2068 21.1421 16.7736 24.1348 18.1072 26.8281C18.2687 27.1542 18.5002 27.5543 18.6215 27.7174C18.802 27.9599 18.854 28.1975 18.9073 29.0222C18.9865 30.2504 19.3153 31.3572 19.8428 32.1717C20.2436 32.7907 21.1712 33.7003 21.6584 33.9523L21.9494 34.1028L21.7052 34.5168L21.4609 34.9308L19.5989 34.9886C17.5221 35.0531 16.9147 35.1859 15.7159 35.8375C14.2531 36.6328 13.2182 37.7073 12.4971 39.1798C11.7328 40.7406 11.7142 40.8906 11.7114 45.5373L11.7091 49.6219L11.9424 49.811C12.1694 49.995 12.517 50 25.0105 50C37.834 50 37.8456 49.9998 38.0488 49.7966C38.2488 49.5966 38.2515 49.5241 38.2185 45.3253C38.1859 41.1728 38.1788 41.0386 37.956 40.3656C37.5877 39.2538 36.9877 38.2005 36.2984 37.4559C35.5394 36.6363 34.9755 36.2083 34.0258 35.7317C32.896 35.1647 31.9381 34.9819 30.0885 34.9801L28.5075 34.9788L28.27 34.563L28.0326 34.1473L28.3194 33.948C28.4772 33.8384 28.9206 33.4367 29.3048 33.0551C30.4106 31.9572 30.8838 30.819 30.9893 29.002C31.0384 28.157 31.1009 27.885 31.4202 27.1245C32.6954 24.088 32.9516 21.693 32.1655 20.1581C31.7368 19.3213 30.9675 18.6544 30.12 18.3854C29.8543 18.301 29.6741 18.1417 29.4513 17.7946C28.7802 16.7487 27.5808 15.8568 26.4324 15.5495C25.805 15.3817 24.4069 15.3879 23.7644 15.5615ZM26.0401 16.8528C27.0663 17.1201 27.7633 17.6708 28.4983 18.7953C28.8815 19.3815 28.9412 19.4286 29.546 19.6204C30.896 20.0485 31.472 21.2186 31.2241 23.0293C31.067 24.177 31.0205 24.2222 30.8181 23.4251C30.6059 22.5895 30.2039 21.8014 29.5929 21.0229C29.1018 20.3971 28.7889 20.2566 28.3172 20.4501C26.9933 20.9928 26.29 21.1782 25.384 21.223C24.2041 21.2815 23.3214 21.1343 22.2205 20.6955C21.7518 20.5086 21.2794 20.3557 21.1707 20.3557C20.9111 20.3557 20.1986 21.0967 19.7541 21.8289C19.3388 22.5131 19.0992 23.2259 18.9285 24.2843L18.8052 25.0494L18.7282 24.3767C18.5783 23.0675 18.9114 21.6502 19.6824 20.3163C20.2848 19.2739 21.6664 17.9442 22.706 17.406C23.9807 16.7462 24.9887 16.579 26.0401 16.8528ZM5.53316 19.7213C3.10797 20.131 1.41755 21.2952 0.442058 23.2273C-0.112191 24.3252 -0.241835 24.9045 -0.241835 26.2846C-0.241835 28.0921 0.00668237 28.7302 1.33593 30.336C2.21251 31.3949 2.58396 32.5292 2.72368 34.574C2.82664 36.0824 2.54443 35.9684 6.17546 35.9684C9.80648 35.9684 9.52427 36.0824 9.62724 34.574C9.77378 32.4282 10.1279 31.4103 11.1704 30.1383C12.3565 28.6911 12.5861 28.0598 12.5897 26.2352C12.5923 24.9228 12.4571 24.3128 11.934 23.2759C11.1024 21.6279 9.44739 20.2984 7.70708 19.8807C7.18801 19.7562 5.89018 19.6611 5.53316 19.7213ZM7.84729 21.3385C9.91449 22.0588 11.2644 23.9979 11.2644 26.2473C11.2644 27.3853 11.0098 28.1372 10.3316 29.002C8.94937 30.7646 8.58 31.618 8.36528 33.5451L8.24393 34.6344L6.14739 34.6611L4.05095 34.6877L4.05056 34.2658C4.04986 33.5695 3.77012 32.0618 3.51656 31.388C3.23475 30.6394 2.98168 30.2276 2.23277 29.2984C1.36834 28.2261 1.1632 27.7331 1.10846 26.5975C1.03069 24.9813 1.41271 23.8442 2.39433 22.7701C3.18484 21.9051 4.08415 21.3808 5.18731 21.1416C5.80629 21.0074 7.19127 21.11 7.84729 21.3385ZM22.4068 22.1955C24.1233 22.7545 26.5057 22.6818 28.0415 22.0235C28.564 21.7996 28.625 21.8326 29.0411 22.5659C29.5762 23.5089 29.6604 23.9732 29.7152 26.2846C29.7791 28.9782 29.6731 29.9341 29.2052 30.8842C28.494 32.3284 26.8489 33.4788 25.3581 33.5745C23.3881 33.7009 21.5637 32.6438 20.685 30.8667L20.3059 30.1L20.2745 27.1794C20.2385 23.8411 20.2944 23.4542 20.9637 22.4189C21.2653 21.9522 21.3883 21.8354 21.5201 21.8907C21.6132 21.9297 22.0122 22.0669 22.4068 22.1955ZM5.7056 22.8982C5.48079 23.1465 5.48573 23.5692 5.71607 23.7995C5.81676 23.9002 6.11686 24.0122 6.38307 24.0483C7.41004 24.1879 8.15263 24.9069 8.26696 25.8723C8.34473 26.529 8.55955 26.8116 8.98099 26.8116C9.4634 26.8116 9.63445 26.5731 9.63079 25.906C9.62496 24.8292 8.74888 23.5511 7.65767 23.0273C6.97457 22.6993 5.947 22.6313 5.7056 22.8982ZM34.4056 23.8181L34.1893 24.0196L34.1908 29.2776C34.1917 32.1695 34.225 34.5845 34.2649 34.6443C34.482 34.9694 34.7427 34.9802 42.2901 34.9802H49.8109L50.0534 34.7376L50.296 34.4952V29.2984V24.1017L50.0534 23.8592L49.8109 23.6166H42.2164C34.71 23.6166 34.6193 23.619 34.4056 23.8181ZM45.7393 26.1117C44.8414 26.7231 43.6784 27.5056 43.1549 27.8507L42.2032 28.4781L39.7526 26.8253C38.4047 25.9163 37.2596 25.1337 37.2081 25.0863C37.1545 25.0371 39.3157 25 42.243 25H47.3719L45.7393 26.1117ZM38.8502 27.8332C40.8609 29.1875 42.0681 29.9407 42.2276 29.9407C42.4536 29.9407 44.9632 28.3205 47.9492 26.2467L48.9126 25.5776V29.5873V33.5968H42.1932H35.4739V29.589C35.4739 26.4101 35.4995 25.5961 35.5974 25.6535C35.6654 25.6933 37.1291 26.6741 38.8502 27.8332ZM24.9996 34.8304C25.6246 34.8295 26.2911 34.8073 26.4807 34.781C26.8068 34.7358 26.8387 34.7581 27.0686 35.1915L27.3118 35.6498L26.8342 36.4761C25.0972 39.4806 24.9786 39.6613 24.8696 39.4664C24.8119 39.3631 24.285 38.46 23.6989 37.4593L22.6331 35.64L22.894 35.1605C23.1496 34.6911 23.1624 34.6826 23.5092 34.7565C23.7038 34.798 24.3746 34.8313 24.9996 34.8304ZM22.9691 38.8834C23.9181 40.5086 24.5531 41.4945 24.6974 41.5666C25.2202 41.8282 25.3598 41.6634 26.9826 38.8701L28.5075 36.245L30.1379 36.2957C31.956 36.3522 32.4736 36.4604 33.5611 37.0109C35.4941 37.9893 36.7378 39.929 36.8367 42.1196L36.8803 43.083H34.3114H31.7426L31.6988 42.4754C31.6639 41.9938 31.608 41.8299 31.4289 41.6849C31.1364 41.448 30.9175 41.4539 30.5959 41.7068L30.3355 41.9116V45.2641V48.6166H24.9996H19.6636V45.4116C19.6636 43.5578 19.6228 42.0992 19.5668 41.9519C19.3691 41.4319 18.6163 41.3665 18.3959 41.8501C18.3323 41.9898 18.2802 42.3244 18.2802 42.5936V43.083H15.647H13.0138L13.0704 42.2083C13.1326 41.249 13.4717 40.0881 13.9064 39.3464C14.2718 38.7229 15.2256 37.7273 15.8624 37.3045C16.4836 36.8923 17.4831 36.4958 18.2132 36.372C18.4946 36.3244 19.3423 36.2918 20.0969 36.2998L21.4688 36.3142L22.9691 38.8834ZM3.32318 36.6673C3.00461 36.9178 2.97605 37.3638 3.26044 37.6482C3.44848 37.8363 3.58979 37.8458 6.17546 37.8458C8.76113 37.8458 8.90243 37.8363 9.09048 37.6482C9.37486 37.3638 9.34631 36.9178 9.02773 36.6673C8.77941 36.4718 8.64799 36.4624 6.17546 36.4624C3.70293 36.4624 3.5715 36.4718 3.32318 36.6673ZM4.01488 38.5448C3.69631 38.7953 3.66775 39.2413 3.95214 39.5257C4.13692 39.7105 4.28148 39.7233 6.17546 39.7233C8.06943 39.7233 8.21399 39.7105 8.39878 39.5257C8.68316 39.2413 8.65461 38.7953 8.33603 38.5448C8.09314 38.3537 7.94828 38.3399 6.17546 38.3399C4.40263 38.3399 4.25777 38.3537 4.01488 38.5448ZM18.2802 46.5415V48.6166H15.6616H13.043V46.5415V44.4664H15.6616H18.2802V46.5415ZM36.8573 46.5415V48.6166H34.2881H31.7189V46.5415V44.4664H34.2881H36.8573V46.5415Z" fill="white" fill-opacity="0.6"/>
<path fill-rule="evenodd" clip-rule="evenodd" d="M23.7643 15.5614C22.0054 16.0362 20.4989 17.0367 19.3099 18.5194C17.2067 21.1421 16.7735 24.1347 18.1071 26.828C18.2687 27.1541 18.5001 27.5543 18.6214 27.7174C18.802 27.9598 18.8539 28.1975 18.9072 29.0222C18.9865 30.2504 19.3152 31.3572 19.8428 32.1717C20.2436 32.7907 21.1711 33.7003 21.6583 33.9522L21.9493 34.1027L21.7051 34.5168L21.4609 34.9308L19.5988 34.9886C17.522 35.053 16.9146 35.1858 15.7158 35.8375C14.2531 36.6328 13.2182 37.7073 12.497 39.1798C11.7327 40.7406 11.7141 40.8906 11.7114 45.5372L11.709 49.6219L11.9423 49.8109C12.1694 49.9949 12.5169 50 25.0105 50C37.8339 50 37.8455 49.9998 38.0487 49.7966C38.2487 49.5966 38.2515 49.5241 38.2185 45.3253C38.1859 41.1728 38.1787 41.0386 37.9559 40.3656C37.5876 39.2537 36.9876 38.2005 36.2983 37.4559C35.5393 36.6362 34.9754 36.2083 34.0257 35.7317C32.8959 35.1647 31.938 34.9819 30.0884 34.9801L28.5074 34.9787L28.2699 34.563L28.0325 34.1473L28.3194 33.948C28.4772 33.8384 28.9205 33.4366 29.3047 33.0551C30.4106 31.9572 30.8837 30.8189 30.9892 29.0019C31.0383 28.157 31.1008 27.8849 31.4201 27.1245C32.6953 24.088 32.9516 21.6929 32.1654 20.1581C31.7368 19.3213 30.9674 18.6544 30.1199 18.3853C29.8542 18.301 29.674 18.1417 29.4513 17.7945C28.7801 16.7487 27.5807 15.8568 26.4323 15.5495C25.8049 15.3817 24.4068 15.3879 23.7643 15.5614ZM26.04 16.8527C27.0662 17.12 27.7632 17.6708 28.4982 18.7952C28.8814 19.3815 28.9411 19.4285 29.5459 19.6203C30.8959 20.0485 31.4719 21.2185 31.224 23.0293C31.0669 24.1769 31.0204 24.2222 30.8181 23.4251C30.6058 22.5895 30.2038 21.8013 29.5929 21.0229C29.1018 20.3971 28.7888 20.2566 28.3171 20.4501C26.9933 20.9928 26.2899 21.1781 25.3839 21.223C24.204 21.2815 23.3213 21.1343 22.2204 20.6954C21.7518 20.5086 21.2793 20.3557 21.1706 20.3557C20.9111 20.3557 20.1985 21.0967 19.754 21.8288C19.3387 22.5131 19.0991 23.2259 18.9284 24.2843L18.8051 25.0494L18.7282 24.3766C18.5783 23.0675 18.9114 21.6502 19.6823 20.3163C20.2848 19.2739 21.6663 17.9441 22.7059 17.406C23.9806 16.7462 24.9886 16.5789 26.04 16.8527ZM22.4067 22.1954C24.1232 22.7545 26.5056 22.6818 28.0414 22.0235C28.5639 21.7996 28.6249 21.8326 29.041 22.5659C29.5762 23.5089 29.6604 23.9732 29.7151 26.2845C29.779 28.9781 29.673 29.9341 29.2051 30.8842C28.494 32.3283 26.8488 33.4787 25.358 33.5745C23.388 33.7009 21.5636 32.6437 20.685 30.8667L20.3058 30.1L20.2744 27.1794C20.2384 23.8411 20.2944 23.4542 20.9636 22.4188C21.2652 21.9521 21.3882 21.8353 21.5201 21.8907C21.6131 21.9297 22.0121 22.0669 22.4067 22.1954ZM24.9995 34.8304C25.6245 34.8295 26.291 34.8073 26.4806 34.781C26.8067 34.7357 26.8386 34.7581 27.0686 35.1915L27.3117 35.6498L26.8341 36.476C25.0971 39.4806 24.9785 39.6612 24.8696 39.4664C24.8118 39.3631 24.285 38.4599 23.6988 37.4593L22.633 35.64L22.894 35.1604C23.1495 34.6911 23.1623 34.6826 23.5091 34.7565C23.7037 34.798 24.3745 34.8313 24.9995 34.8304ZM22.9691 38.8834C23.9181 40.5086 24.5531 41.4944 24.6973 41.5666C25.2201 41.8281 25.3598 41.6634 26.9825 38.87L28.5074 36.2449L30.1378 36.2956C31.9559 36.3521 32.4735 36.4603 33.5611 37.0108C35.4941 37.9893 36.7377 39.9289 36.8367 42.1195L36.8802 43.083H34.3114H31.7426L31.6987 42.4754C31.6638 41.9937 31.6079 41.8299 31.4288 41.6848C31.1364 41.448 30.9174 41.4538 30.5958 41.7068L30.3355 41.9115V45.2641V48.6166H24.9995H19.6635V45.4115C19.6635 43.5578 19.6227 42.0992 19.5667 41.9518C19.3691 41.4319 18.6162 41.3665 18.3958 41.8501C18.3322 41.9898 18.2801 42.3244 18.2801 42.5935V43.083H15.6469H13.0137L13.0703 42.2083C13.1325 41.249 13.4716 40.0881 13.9063 39.3464C14.2717 38.7229 15.2255 37.7272 15.8623 37.3045C16.4835 36.8923 17.483 36.4958 18.2131 36.372C18.4946 36.3244 19.3422 36.2918 20.0968 36.2998L21.4688 36.3142L22.9691 38.8834ZM18.2801 46.5415V48.6166H15.6616H13.043V46.5415V44.4664H15.6616H18.2801V46.5415ZM36.8572 46.5415V48.6166H34.288H31.7189V46.5415V44.4664H34.288H36.8572V46.5415Z" fill="#F3C469"/>
</g>
<defs>
<clipPath id="clip0_313_2424">
<rect width="50" height="50" fill="white"/>
</clipPath>
</defs>
</svg>
