<svg width="50" height="50" viewBox="0 0 50 50" fill="none" xmlns="http://www.w3.org/2000/svg"><path fill-rule="evenodd" clip-rule="evenodd" d="M11.924.26l-.256.255v7.31l.256.256c.338.338.816.338 1.155 0l.255-.256V1.67h25.468l4.166 4.166 4.165 4.167H40V4.68l-.256-.255a.84.84 0 00-.577-.256.84.84 0 00-.578.256l-.255.255v6.477l.255.256.256.255h9.488v36.664h-22.82l-.256.256a.84.84 0 00-.256.578.84.84 0 00.256.577l.256.256h23.975l.256-.256.255-.255V10.505l-5.234-5.252L39.53 0 25.855.002 12.179.004l-.255.255zm8.332 6.665a.84.84 0 00-.256.578.84.84 0 00.256.578l.256.255h13.976l.256-.255c.338-.339.338-.817 0-1.156l-.256-.255H20.512l-.256.255zm-9.071 3.185c-1.493.269-2.773.961-3.944 2.132-1.383 1.383-2.083 2.901-2.204 4.784-.129 1.996.384 3.48 1.91 5.528C9.176 25.549 10 27.267 10 28.929c0 .678.307 1.072.834 1.072a.84.84 0 00.577-.255c.213-.213.255-.356.254-.86-.005-1.717-.861-3.86-2.374-5.944l-1.31-1.799c-1.084-1.485-1.467-2.88-1.232-4.49.364-2.499 2.401-4.538 4.898-4.902 4.427-.645 7.92 3.777 6.247 7.907-.144.355-.537 1.023-.875 1.485l-1.317 1.803c-.787 1.075-1.853 3.134-2.117 4.087-.121.44-.187 1.219-.223 2.63l-.05 2.005h-1.41c-1.755 0-2.112.1-2.79.778-.79.789-1.02 1.802-.523 2.3.517.516 1.411.15 1.411-.578a.84.84 0 01.256-.578c.254-.253.272-.256 2.244-.256 1.972 0 1.99.003 2.244.256a.84.84 0 01.256.578c0 .428.405.833.833.833.695 0 .988-.657.71-1.587-.148-.491-.94-1.409-1.293-1.498l-.25-.062V30.11c0-3.003.424-4.037 3.168-7.713 1.404-1.881 1.921-3.43 1.796-5.372-.121-1.883-.82-3.4-2.204-4.784-1.453-1.453-2.954-2.118-4.947-2.19-.602-.021-1.335.004-1.63.058zm9.071.149a.84.84 0 00-.256.577.84.84 0 00.256.578l.256.255h10.643l.256-.255a.84.84 0 00.255-.578.84.84 0 00-.255-.578l-.256-.255H20.512l-.256.255zm11.342 8.223c-2.135.409-3.814 1.306-5.352 2.86-1.341 1.357-2.205 2.898-2.672 4.768-.247.99-.247 3.46 0 4.45.467 1.87 1.331 3.411 2.672 4.767 1.85 1.87 4.011 2.842 6.618 2.973 2.898.147 5.457-.863 7.552-2.982 1.364-1.38 2.217-2.89 2.657-4.705.337-1.389.301-3.802-.067-4.61-.17-.374-.63-.54-1.032-.375-.5.208-.56.424-.41 1.476.467 3.256-.964 6.408-3.73 8.221-3.22 2.11-7.567 1.66-10.326-1.069-1.67-1.65-2.451-3.538-2.451-5.921 0-1.815.367-3.096 1.293-4.515 2.369-3.628 6.988-4.832 10.911-2.843.677.342.907.345 1.239.013.203-.203.254-.348.23-.647-.027-.314-.109-.437-.45-.673-.497-.344-1.777-.859-2.681-1.078-.933-.226-3.083-.285-4.001-.11zm10.414 1.768c-.162.137-2.145 2.27-4.407 4.74-2.261 2.47-4.146 4.49-4.189 4.49-.042 0-.9-.983-1.905-2.185-1.928-2.306-2.126-2.469-2.65-2.175-.413.232-.576.65-.394 1.014.238.477 4.337 5.326 4.605 5.449a.906.906 0 00.51.045c.175-.044 1.881-1.832 5.008-5.247 4.457-4.869 4.742-5.203 4.742-5.564 0-.29-.066-.436-.274-.599-.36-.283-.684-.273-1.046.032zM4.637 36.79c-1.603.301-3.27 1.613-4.01 3.154-.537 1.12-.625 1.703-.625 4.144 0 2.057.001 2.07.256 2.324.21.21.358.256.833.256h.578v1.41c0 1.36.009 1.421.255 1.667L2.18 50h20.642l.256-.256c.246-.246.256-.307.256-1.666v-1.411h.577c.475 0 .624-.046.833-.256.255-.254.256-.267.256-2.324 0-2.442-.088-3.024-.625-4.144-.76-1.584-2.416-2.86-4.107-3.164-.377-.068-2.4-.111-5.187-.111h-4.568l-.256.255a.814.814 0 00-.057 1.113l.2.246 4.878.052 4.879.052.696.33c.968.459 1.571 1.05 2.04 1.997l.389.787.036 1.75.037 1.75H1.647l.038-1.744c.036-1.706.044-1.76.366-2.44.453-.958 1.05-1.573 1.968-2.027.69-.34.867-.381 1.923-.442 1.053-.06 1.181-.09 1.36-.312a.814.814 0 00-.056-1.112c-.235-.235-.33-.255-1.172-.244-.504.007-1.15.056-1.437.11zm17.03 10.71v.834H3.335v-1.668h18.332v.833z" fill="#fff" fill-opacity=".6"/><path fill-rule="evenodd" clip-rule="evenodd" d="M31.598 18.482c-2.136.409-3.814 1.306-5.352 2.86-1.341 1.357-2.205 2.898-2.672 4.768-.247.99-.247 3.46 0 4.45.467 1.87 1.33 3.411 2.672 4.767 1.85 1.87 4.011 2.842 6.618 2.973 2.898.147 5.457-.863 7.552-2.982 1.364-1.38 2.217-2.89 2.657-4.705.337-1.389.301-3.802-.067-4.61-.17-.374-.63-.54-1.032-.375-.5.208-.56.424-.41 1.476.467 3.256-.964 6.408-3.73 8.221-3.22 2.11-7.567 1.66-10.326-1.068-1.67-1.652-2.451-3.539-2.451-5.922 0-1.815.367-3.096 1.293-4.515 2.369-3.628 6.988-4.832 10.911-2.843.677.343.907.345 1.239.013.203-.203.254-.348.23-.647-.027-.314-.109-.437-.45-.673-.497-.344-1.777-.859-2.681-1.078-.933-.226-3.083-.285-4.001-.11zm10.414 1.768c-.162.137-2.145 2.27-4.407 4.74-2.261 2.47-4.146 4.49-4.189 4.49-.042 0-.9-.983-1.905-2.185-1.928-2.306-2.126-2.469-2.65-2.175-.413.232-.576.65-.394 1.014.238.477 4.337 5.326 4.605 5.449a.905.905 0 00.51.045c.175-.044 1.881-1.831 5.008-5.247 4.457-4.869 4.742-5.203 4.742-5.564 0-.29-.066-.436-.274-.599-.36-.283-.684-.273-1.046.032z" fill="#F3C469"/></svg>