<svg width="50" height="50" viewBox="0 0 50 50" fill="none" xmlns="http://www.w3.org/2000/svg"><path fill-rule="evenodd" clip-rule="evenodd" d="M23.508.908a30.715 30.715 0 01-5.158 3.115c-3.978 1.934-7.856 2.92-12.238 3.114-1.647.073-1.753.09-1.927.304-.177.216-.185.58-.185 7.738 0 4.348.044 7.991.104 8.652.492 5.46 2.355 10.518 5.502 14.945 2.148 3.02 5.084 5.85 8.122 7.826 2.073 1.349 3.58 2.123 5.865 3.017 1.33.52 1.323.52 2.867-.076C36.582 45.64 43.83 36.792 45.591 26.19c.367-2.206.409-3.332.409-11.011 0-7.159-.008-7.522-.185-7.738-.174-.214-.28-.23-1.927-.304-4.498-.198-8.271-1.174-12.438-3.215-2.016-.987-3.387-1.825-5.107-3.124C25.621.254 25.199 0 25.013 0c-.186 0-.66.287-1.505.908zm2.445 1.439C30.71 5.839 36.492 8.05 42.15 8.54c.715.062 1.54.136 1.832.163l.532.051-.044 7.464c-.045 7.918-.058 8.148-.57 10.696a28.665 28.665 0 01-7.8 14.595c-2.984 3-6.271 5.16-10.175 6.686l-.926.362-.974-.386c-5.766-2.286-10.395-6.042-13.84-11.228-.809-1.216-2.312-4.187-2.834-5.598-.736-1.992-1.27-4.118-1.612-6.421-.145-.973-.176-2.255-.212-8.65l-.042-7.508.383-.062c.21-.035.608-.063.885-.064.799-.002 2.87-.28 4.447-.597 4.51-.909 9.155-2.955 12.78-5.631.534-.394.994-.718 1.023-.72.03-.002.457.292.95.655zM24.1 5.134c-4.094 2.744-8.962 4.62-14.246 5.49-1.56.257-1.716.302-1.934.553l-.237.274.047 6.017c.053 6.774.113 7.536.825 10.335 1.618 6.369 5.533 11.857 11.075 15.527 1.28.848 3.53 2.034 4.722 2.489l.701.268.85-.36c7.953-3.371 13.76-10.29 15.637-18.634.554-2.46.587-2.953.634-9.454.024-3.323.017-6.149-.016-6.278-.078-.31-.47-.501-1.207-.587-.966-.113-3.218-.536-4.3-.807-3.48-.872-6.98-2.38-10.067-4.338-.9-.57-1.459-.863-1.649-.863-.165 0-.519.156-.835.368zm1.573 1.656c2.436 1.564 5.604 3.045 8.478 3.964 1.917.613 3.498.973 6.235 1.418l.336.054-.049 5.53c-.051 5.795-.09 6.379-.573 8.711-.928 4.478-3.197 8.76-6.417 12.11-1.323 1.376-2.605 2.437-4.277 3.54-1.43.945-3.998 2.269-4.398 2.269-.397 0-3-1.332-4.343-2.223-2.225-1.475-4.181-3.229-5.78-5.18-2.228-2.718-4.139-6.668-4.922-10.173-.54-2.415-.582-3.02-.634-9.005l-.049-5.579.336-.054c1.882-.306 2.95-.518 4.135-.82 3.575-.908 7.34-2.518 10.29-4.397.5-.32.92-.585.932-.59.012-.006.327.186.7.425z" fill="#fff" fill-opacity=".6"/><path d="M24.13 31.417L23.51 15h2.806l-.437 16.417H24.13zm.898 5.221c-.43 0-.79-.146-1.081-.437a1.415 1.415 0 01-.437-1.035c0-.43.145-.782.437-1.058a1.511 1.511 0 011.08-.414c.43 0 .783.138 1.059.414.276.276.414.629.414 1.058 0 .399-.138.744-.414 1.035-.276.291-.629.437-1.058.437z" fill="#F3C469"/></svg>