<svg width="50" height="50" viewBox="0 0 50 50" fill="none" xmlns="http://www.w3.org/2000/svg"><g clip-path="url(#clip0_313_2441)"><path d="M29.125 20.474c.694-.086 1.19-.276 1.909-.625 1.104-.54 2.845-1.341 3.557.227a.12.12 0 00.155.063.121.121 0 00.05-.036 4.192 4.192 0 00.907-2.074c.22-1.57 1.18-2.057 2.49-2.673.8-.376 1.638-.93 2.207-1.537.17-.182.206-.493.217-.789a3.43 3.43 0 01.419-1.542.373.373 0 00.03-.283c-.14-.472-.308-1.043-.237-1.502.19-1.235 1.639-1.223 2.597-.946 1.355.392 1.37 1.506 1.271 2.695a.136.136 0 00.094.14c2.463.775 2.223 2.562 1.93 4.663-.182 1.305-.4 3.332.986 4.114 1.166.657 1.896 2.03 2.204 3.282.458 1.863-.991 2.091-2.21 1.199a7.413 7.413 0 01-2.128-2.42c-.078-.142-.718-1.335-.795-1.332-.01 0-.019.006-.025.016a.07.07 0 00-.01.039 4.783 4.783 0 01-.564 2.318c-.253.487-.453.966-.452 1.512 0 .205-.018.39-.054.552a4.752 4.752 0 00-.048 1.792c.034.207.156.321.365.345.761.084 1.733-.49 2.038.542.319 1.077.585 1.877.8 2.4.818 1.997.581 3.989-.037 6.07-.277.934-1.352 1.41-2.154.807-.676-.507-.77-1.549-.638-2.334.185-1.087-1.398-1.015-2.045-1.068-.733-.06-.98-.413-1.4-.933a.554.554 0 00-.372-.207 1.983 1.983 0 00-.639.006c-.202.043-.313.167-.331.373-.082.929.046 2.32-.996 2.77a9.093 9.093 0 01-.67.169c-1.103.258-1.573 1.24-2.831.998-.485-.092-.907-.174-1.4-.01-1.018.34-1.669.555-2.636-.056-.205-.129-.532-.196-.75-.091-.834.402-1.353.721-2.142.472a.111.111 0 00-.091.011c-2.057 1.288-5.455 1.631-7.18-.403-.338-.398-.647-1.004-.969-1.504a.55.55 0 00-.516-.269c-.293.013-.644.062-.926-.036-.543-.19-.796-.815-1.021-1.288a.245.245 0 00-.204-.14 4.517 4.517 0 01-2.352-.885.068.068 0 00-.04-.014.072.072 0 00-.041.013l-.958.66a.155.155 0 00-.06.077c-.287.798-.605 1.656-1.484 1.586-.818-.066-1.608-1.124-2.03-1.744a1.763 1.763 0 00-.41-.435c-.993-.722-2.015-.919-2.749.27-.696 1.127-1.074 2.424-1.543 3.71-.158.433-.32.73-.485.892C2.963 39.805.68 33.931.25 32.92c-.726-1.709.16-2.982 2.01-2.896.122.006.202-.05.24-.165.25-.748-.15-2.047-.211-2.686-.23-2.36.348-5.617 2.947-6.51.48-.165 1.115-.228 1.58-.416 1.32-.536 1.997-1.705 2.868-2.634 1.599-1.707 4.406 1.075 3.486 2.861-.443.862-1.586 1.055-2.412.616a.09.09 0 00-.077-.004.084.084 0 00-.048.056l-.127.528c-.04.162.027.232.199.208 1.214-.164 2.416-.349 3.608-.554 1.1-.189 2.474-.172 3.389.73.255.25.442.326.782.31 1.757-.08 2.008-.393 3.017-1.808.11-.153.24-.285.392-.395.454-.33 1.019-.319 1.331.187.712 1.15.204 2.378-.718 3.223a.151.151 0 00-.032.042.103.103 0 00-.012.044l-.01.416c-.005.148.07.204.223.168.244-.058.191-.245.216-.432.084-.648.43-1.11.9-1.535a.115.115 0 00.036-.085c-.033-1.119-.186-2.038 1.174-2.366a.163.163 0 00.084-.05c.676-.751.924-1.063 1.942-1.35a11.202 11.202 0 001.502-.539.573.573 0 01.5.007c1.333.641.72 1.702.061 2.524-.039.048-.027.068.034.06zm-11.042 3.081c-1.095-.081-1.303-1.138-2.499-1.095-1.453.052-2.872.395-4.313.562-1.184.137-2.157-.134-1.96-1.59.108-.808.473-1.63 1.431-1.59.391.016.695.304 1.07.256 1.027-.133-.585-2.474-1.315-1.596-1.189 1.431-2.067 2.662-4.006 3.104-.97.22-1.624.408-2.2 1.31-.957 1.494-.98 3.6-.616 5.31.216 1.009.283 2.371-.815 2.899-.619.297-2.116-.19-1.544 1.16.758 1.786 1.389 3.363 2.49 4.714.088.106.153.094.195-.037a34.24 34.24 0 011.188-3.176c1.056-2.418 3.027-3.172 5.21-1.426.162.13.336.325.521.587.288.404.607.784.957 1.139a.083.083 0 00.11.006.08.08 0 00.024-.033c.289-.703.38-1.078 1.062-1.532.907-.605 1.223-1.004 2.319-.343.398.24.727.409 1.21.49 1.164.198 1.373.431 1.89 1.503a.067.067 0 00.071.038c2.003-.293 2.011 1.337 3.04 2.366 1.327 1.328 4.01.879 5.48-.05.356-.228.776-.18 1.267-.08a.162.162 0 00.096-.01c1.082-.454 1.804-.954 2.926-.264.508.312.786.204 1.366-.012a3.3 3.3 0 012.063-.109c.26.066.558.05.743-.114a3.63 3.63 0 012.033-.914c.196-.022.3-.13.314-.327.077-1.16-.07-2.623 1.396-2.936.84-.18 1.804.025 2.277.68.145.202.28.343.401.424a.163.163 0 00.094.026c1.11-.029 2.612.186 3.043 1.412.173.488.098 1.176.077 1.74-.007.176.037.312.129.41.142.15.257.064.306-.099.392-1.315.663-2.75.43-4.115-.052-.3-.181-.717-.39-1.252a23.926 23.926 0 01-.707-2.097.06.06 0 00-.064-.042c-1.166.146-2.216-.042-2.46-1.36a5.295 5.295 0 01.03-2.061 3.03 3.03 0 00.059-.597c.006-.654.274-1.335.584-1.919.362-.685.457-1.367.453-2.127-.004-.655.328-1.468 1.119-1.267 1.02.26 1.588 1.637 2.055 2.447a6.047 6.047 0 001.938 2.06c.082.053.111.032.088-.062a5.044 5.044 0 00-1.01-2.017c-.313-.385-.813-.565-1.123-.837-1.675-1.471-1.256-3.975-.978-5.903.086-.586.153-1.435-.24-1.908-.425-.512-1.232-.46-1.637-1.003-.364-.488-.26-1.359-.255-1.937a.387.387 0 00-.284-.403 2.638 2.638 0 00-1.047-.118c-.134.008-.184.078-.15.208.075.28.144.554.207.823.208.876-.333 1.299-.38 2.088-.044.756-.172 1.322-.704 1.836-.896.866-1.855 1.361-2.965 1.933-.718.37-1.129.575-1.27 1.442-.049.303-.112.6-.19.894-.27 1.017-1.532 3.151-2.843 2.104-.215-.172-.347-.475-.494-.72a.114.114 0 00-.077-.054c-.688-.133-2.063.758-2.758.997-.693.239-2.757.775-2.93-.429-.079-.558.414-1.227.794-1.638a.043.043 0 00.012-.029v-.016a.02.02 0 00-.003-.01.023.023 0 00-.008-.009.027.027 0 00-.012-.003.03.03 0 00-.013.002c-.701.27-1.616.322-2.075.969-.301.424-.707.71-1.217.854a.07.07 0 00-.037.024.065.065 0 00-.014.04c-.015.892.151 1.689-.7 2.28a.497.497 0 00-.226.425c-.025 2.088-2.955 2.239-2.893-.06.015-.518.101-.773.484-1.147.096-.094.825-1.005.618-1.106-.01-.006-.025-.005-.039.002a.096.096 0 00-.037.036c-1.016 1.654-2.285 2.12-4.172 1.98z" fill="#fff" fill-opacity=".6"/><circle cx="3.641" cy="32.466" r=".521" fill="#F3C469"/><circle cx="10.932" cy="30.382" r=".521" fill="#F3C469"/><circle cx="11.975" cy="26.216" r=".521" fill="#F3C469"/><circle cx="20.306" cy="31.424" r=".521" fill="#F3C469"/><circle cx="22.13" cy="30.122" r=".26" fill="#F3C469"/><circle cx="25.254" cy="33.247" r=".26" fill="#F3C469"/><circle cx="32.545" cy="35.33" r=".26" fill="#F3C469"/><circle cx="30.462" cy="25.956" r=".26" fill="#F3C469"/><circle cx="12.755" cy="28.039" r=".26" fill="#F3C469"/><circle cx="5.465" cy="22.831" r=".26" fill="#F3C469"/><circle cx="19.266" cy="25.174" r=".521" fill="#F3C469"/><circle cx="26.557" cy="25.174" r=".521" fill="#F3C469"/><circle cx="28.64" cy="24.133" r=".521" fill="#F3C469"/><circle cx="38.014" cy="25.174" r=".521" fill="#F3C469"/><circle cx="34.888" cy="29.341" r=".521" fill="#F3C469"/><circle cx="36.972" cy="32.466" r=".521" fill="#F3C469"/><circle cx="44.263" cy="31.424" r=".521" fill="#F3C469"/><circle cx="26.557" cy="32.466" r=".521" fill="#F3C469"/><circle cx="33.326" cy="30.903" r="1.042" fill="#F3C469"/><circle cx="40.096" cy="19.966" r=".521" fill="#F3C469"/><circle cx="42.18" cy="18.925" r=".521" fill="#F3C469"/><circle cx="40.617" cy="25.695" r="1.042" fill="#F3C469"/><circle cx="10.932" cy="18.925" r=".521" fill="#F3C469"/><circle cx="8.85" cy="26.216" r="1.562" fill="#F3C469"/></g><defs><clipPath id="clip0_313_2441"><path fill="#fff" d="M0 0h50v50H0z"/></clipPath></defs></svg>