<?xml version="1.0" standalone="no"?>
<!DOCTYPE svg PUBLIC "-//W3C//DTD SVG 20010904//EN"
 "http://www.w3.org/TR/2001/REC-SVG-20010904/DTD/svg10.dtd">
<svg version="1.0" xmlns="http://www.w3.org/2000/svg"
 width="106.000000pt" height="106.000000pt" viewBox="0 0 106.000000 106.000000"
 preserveAspectRatio="xMidYMid meet">
<metadata>
Created by potrace 1.14, written by Peter Selinger 2001-2017
</metadata>
<g transform="translate(0.000000,106.000000) scale(0.100000,-0.100000)"
fill="#000000" stroke="none">
<path d="M46 655 c-12 -13 -16 -37 -16 -110 0 -81 -2 -94 -18 -98 -21 -6 42
-10 128 -8 36 1 69 6 73 10 5 5 9 52 8 105 -1 80 1 96 14 96 8 0 15 3 15 8 0
4 -38 7 -85 8 -47 0 -85 -2 -85 -6 0 -4 10 -7 23 -7 12 -1 41 -1 65 -2 l43 -1
-3 -97 -3 -98 -74 -3 c-45 -2 -77 1 -81 8 -3 6 -6 49 -6 96 1 63 5 87 16 94 8
5 12 12 8 15 -3 3 -13 -1 -22 -10z"/>
<path d="M405 608 c0 -45 3 -58 15 -58 12 0 15 13 15 58 0 45 -3 58 -15 58
-12 0 -15 -13 -15 -58z"/>
<path d="M570 662 c-10 -5 -16 -25 -18 -59 -2 -45 0 -53 15 -53 15 0 18 9 18
60 0 33 0 60 0 59 0 0 -7 -3 -15 -7z"/>
<path d="M720 650 c-11 -11 -20 -30 -20 -43 0 -27 25 -65 36 -55 4 4 2 13 -3
20 -12 16 -8 65 8 84 17 21 2 17 -21 -6z"/>
<path d="M774 645 c10 -19 12 -36 5 -58 -11 -38 -2 -49 17 -22 21 28 14 75
-14 93 -22 14 -22 14 -8 -13z"/>
<path d="M886 658 c-3 -7 -6 -34 -8 -60 -3 -40 0 -48 14 -48 12 0 16 6 13 20
-2 12 2 23 10 27 8 3 15 9 15 14 0 4 -7 6 -14 3 -11 -4 -14 0 -10 19 4 27 -13
48 -20 25z"/>
<path d="M930 663 c0 -4 5 -15 10 -23 8 -13 10 -13 10 2 0 9 -4 20 -10 23 -5
3 -10 3 -10 -2z"/>
<path d="M1026 658 c-3 -7 -6 -34 -8 -60 -3 -40 0 -48 14 -48 15 0 18 9 18 54
0 51 -15 84 -24 54z"/>
<path d="M455 630 c0 -16 5 -30 11 -30 15 0 25 26 18 45 -10 26 -29 16 -29
-15z"/>
<path d="M606 645 c4 -8 2 -21 -3 -28 -12 -15 13 -81 27 -72 10 6 4 31 -13 53
-6 8 -6 12 2 12 6 0 11 11 11 25 0 15 -6 25 -15 25 -9 0 -12 -6 -9 -15z"/>
<path d="M260 497 c0 -95 -2 -107 -17 -108 -10 0 -55 -2 -100 -2 -45 -1 -84
-5 -87 -8 -4 -3 41 -6 98 -5 57 1 107 4 111 8 8 8 9 207 1 215 -3 4 -6 -42 -6
-100z"/>
<path d="M415 492 c-5 -4 -11 -31 -12 -59 -1 -44 2 -53 15 -53 14 0 17 9 14
48 -4 67 -6 72 -17 64z"/>
<path d="M472 480 c0 -14 2 -19 5 -12 2 6 2 18 0 25 -3 6 -5 1 -5 -13z"/>
<path d="M550 488 c0 -18 63 -108 76 -108 19 0 18 7 -6 37 -17 21 -18 29 -8
41 11 13 11 14 0 8 -14 -8 -45 11 -37 23 2 4 -2 8 -10 8 -8 0 -15 -4 -15 -9z"/>
<path d="M620 490 c-9 -6 -10 -10 -3 -10 6 0 15 5 18 10 8 12 4 12 -15 0z"/>
<path d="M705 438 c0 -48 3 -58 17 -58 14 0 16 8 14 43 -2 23 1 49 5 57 5 11
1 15 -14 15 -20 0 -22 -5 -22 -57z"/>
<path d="M762 473 c3 -11 1 -28 -4 -37 -9 -16 -7 -16 12 -6 24 13 24 50 1 58
-10 3 -12 -1 -9 -15z"/>
<path d="M445 441 c-3 -5 -1 -12 5 -16 5 -3 10 1 10 9 0 18 -6 21 -15 7z"/>
<path d="M462 395 c-11 -12 -10 -15 3 -15 8 0 15 7 15 15 0 18 -2 18 -18 0z"/>
<path d="M550 395 c-10 -12 -10 -15 4 -15 9 0 16 7 16 15 0 8 -2 15 -4 15 -2
0 -9 -7 -16 -15z"/>
</g>
</svg>
