<svg width="31" height="30" viewBox="0 0 31 30" fill="none" xmlns="http://www.w3.org/2000/svg"><path d="M15.147 20.514c-.191.174-.383.347-.571.52-.44.402-.874.813-1.325 1.203-.256.221-.568.276-.904.206-.344-.071-.54-.31-.692-.598-.139-.264-.216-.55-.303-.834l-.925-3.02c-.048-.162-.101-.323-.148-.485a.104.104 0 00-.076-.078 409.13 409.13 0 01-2.768-.932 5.485 5.485 0 01-.6-.228c-.29-.13-.53-.349-.686-.625a1.11 1.11 0 01.258-1.416 2.1 2.1 0 01.574-.346l2.552-1.076 3.758-1.586 5.054-2.135c.964-.406 1.93-.81 2.895-1.213.24-.108.502-.161.766-.156a1.19 1.19 0 011.102.927c.06.268.035.533-.017.799-.11.556-.218 1.113-.326 1.67l-.321 1.65-.404 2.072-.366 1.87c-.13.664-.258 1.328-.386 1.994l-.444 2.271c-.072.367-.141.734-.216 1.1-.04.195-.151.355-.272.507-.363.457-.849.613-1.41.557-.164-.016-.323-.076-.484-.118-.119-.03-.206-.114-.3-.186l-2.975-2.288a.746.746 0 01-.04-.026zm-.075-1.723l.06.045 1.662 1.277 2.125 1.63a.595.595 0 00.227.094c.1.022.197-.06.217-.164a2738.61 2738.61 0 01.803-4.11l.564-2.901.44-2.246.601-3.094c.016-.081.027-.163.041-.244l-.017-.014-14.33 6.047.427.144 3.415 1.15a.09.09 0 00.07-.009c.247-.15.492-.304.739-.457l3.514-2.182c1.234-.767 2.467-1.532 3.702-2.296a.91.91 0 01.252-.089c.06-.015.127-.007.155.058.033.076.055.16-.01.233a3.387 3.387 0 01-.209.22c-.49.46-.98.918-1.471 1.375l-2.426 2.267c-.79.738-1.58 1.475-2.369 2.214a.166.166 0 00-.048.087c-.064.398-.126.796-.188 1.193l-.246 1.585-.048.315.013.006 2.335-2.134z" fill="#FCFCFC"/></svg>