<svg width="30" height="30" viewBox="0 0 30 30" fill="none" xmlns="http://www.w3.org/2000/svg"><path d="M25.238 10.414c.138-.468 0-.814-.669-.814h-2.208c-.562 0-.821.297-.96.626 0 0-1.125 2.742-2.715 4.52-.514.514-.75.678-1.032.678-.138 0-.35-.165-.35-.634v-4.376c0-.563-.16-.814-.624-.814h-3.472c-.354 0-.563.262-.563.506 0 .533.795.656.877 2.156v3.256c0 .712-.127.843-.409.843-.75 0-2.572-2.751-3.652-5.902-.218-.611-.431-.859-.998-.859H6.255c-.63 0-.757.297-.757.626 0 .585.75 3.492 3.49 7.332 1.827 2.621 4.4 4.042 6.74 4.042 1.405 0 1.578-.315 1.578-.859 0-2.504-.127-2.74.577-2.74.326 0 .89.165 2.201 1.428 1.5 1.5 1.75 2.171 2.59 2.171h2.207c.63 0 .949-.315.765-.938-.42-1.308-3.258-4-3.386-4.18-.326-.42-.232-.608 0-.983.003-.004 2.7-3.799 2.978-5.085z" fill="#FCFCFC"/></svg>