<svg width="106" height="34" viewBox="0 0 106 34" fill="none" xmlns="http://www.w3.org/2000/svg"><path d="M25.454 4.165L6.364 4a2.545 2.545 0 00-2.546 2.545v19.091m22.744-15.272l.165 19.09A2.546 2.546 0 0124.182 32H5.09" stroke="#F3C469" stroke-linejoin="round"/><path d="M21.47 4l.166 19.09a2.545 2.545 0 01-2.545 2.546H0" stroke="#F3C469" stroke-linejoin="round"/><path d="M39.576 3.672c.267.01.608.021 1.024.032.416.01.832.016 1.248.016.523 0 1.019-.005 1.488-.016.47-.01.8-.016.992-.016 1.43 0 2.49.293 3.184.88.704.587 1.056 1.344 1.056 2.272 0 .384-.07.79-.208 1.216a3.165 3.165 0 01-.72 1.168c-.341.352-.81.64-1.408.864-.587.224-1.339.336-2.256.336h-1.6v-.32h1.44c.672 0 1.184-.144 1.536-.432.363-.288.603-.667.72-1.136a5.76 5.76 0 00.192-1.52c0-1.013-.165-1.77-.496-2.272-.33-.501-.901-.752-1.712-.752-.437 0-.725.09-.864.272-.128.181-.192.55-.192 1.104v7.872c0 .405.043.71.128.912.085.203.25.336.496.4.245.064.597.101 1.056.112V15c-.31-.021-.71-.032-1.2-.032-.49-.01-.997-.016-1.52-.016-.448 0-.88.005-1.296.016-.416 0-.779.01-1.088.032v-.32c.352-.021.613-.064.784-.128a.534.534 0 00.352-.384c.064-.192.096-.48.096-.864V5.368c0-.395-.032-.683-.096-.864a.534.534 0 00-.352-.384c-.17-.075-.432-.117-.784-.128v-.32zm14.706 0c.267.01.608.021 1.024.032.416.01.832.016 1.248.016.523 0 1.019-.005 1.488-.016.47-.01.8-.016.992-.016.96 0 1.75.117 2.368.352.63.224 1.099.544 1.408.96.31.416.464.907.464 1.472 0 .352-.07.715-.208 1.088-.138.363-.378.699-.72 1.008-.341.31-.81.565-1.408.768-.586.192-1.338.288-2.256.288h-1.536v-.32h1.376c.672 0 1.184-.117 1.536-.352.363-.245.603-.565.72-.96.128-.405.192-.853.192-1.344 0-.843-.165-1.493-.496-1.952-.33-.47-.901-.704-1.712-.704-.437 0-.725.09-.864.272-.128.181-.192.55-.192 1.104v7.936c0 .384.032.672.096.864a.58.58 0 00.352.384c.182.064.443.107.784.128V15a13.326 13.326 0 00-1.024-.032 52.478 52.478 0 00-2.608 0c-.416 0-.757.01-1.024.032v-.32c.352-.021.614-.064.784-.128a.534.534 0 00.352-.384c.064-.192.096-.48.096-.864V5.368c0-.395-.032-.683-.096-.864a.534.534 0 00-.352-.384c-.17-.075-.432-.117-.784-.128v-.32zm2.864 5.68c.502.021.918.048 1.248.08.342.021.63.043.864.064.246.021.464.048.656.08.886.085 1.536.293 1.952.624.427.32.71.81.848 1.472l.368 1.648c.096.437.198.752.304.944a.524.524 0 00.496.256c.15 0 .278-.037.384-.112a1.89 1.89 0 00.32-.336l.224.192c-.266.33-.55.576-.848.736-.298.15-.677.224-1.136.224-.512 0-.944-.117-1.296-.352-.352-.245-.592-.704-.72-1.376l-.304-1.6a8.654 8.654 0 00-.304-1.184c-.106-.341-.256-.608-.448-.8-.192-.192-.474-.288-.848-.288h-1.728l-.032-.272zm18.396-5.904c1.088 0 2.043.23 2.864.688A4.686 4.686 0 0180.31 6.12c.459.853.688 1.893.688 3.12 0 1.195-.234 2.24-.704 3.136a5.108 5.108 0 01-1.936 2.096c-.821.501-1.765.752-2.832.752-1.088 0-2.042-.23-2.864-.688a4.784 4.784 0 01-1.92-1.984c-.448-.864-.672-1.904-.672-3.12 0-1.195.235-2.24.704-3.136.47-.896 1.115-1.595 1.936-2.096.822-.501 1.766-.752 2.832-.752zm-.064.288c-.629 0-1.178.24-1.648.72-.458.48-.816 1.141-1.072 1.984-.256.843-.384 1.819-.384 2.928 0 1.13.144 2.117.432 2.96.288.832.678 1.477 1.168 1.936.491.448 1.03.672 1.616.672.63 0 1.174-.24 1.632-.72.47-.48.832-1.141 1.088-1.984.256-.853.384-1.83.384-2.928 0-1.141-.144-2.128-.432-2.96-.288-.832-.677-1.472-1.168-1.92-.48-.459-1.018-.688-1.616-.688zm19.882-.064c-.043.459-.075.901-.096 1.328-.011.427-.016.752-.016.976 0 .245.005.475.016.688.01.213.021.4.032.56h-.368c-.118-.8-.278-1.43-.48-1.888-.203-.47-.475-.8-.816-.992-.342-.203-.795-.304-1.36-.304h-.688c-.32 0-.566.027-.736.08a.528.528 0 00-.352.336c-.054.17-.08.432-.08.784v8c0 .405.042.71.128.912.085.203.25.336.496.4.245.064.597.101 1.056.112V15c-.31-.021-.71-.032-1.2-.032-.491-.01-.998-.016-1.52-.016-.448 0-.88.005-1.296.016-.416 0-.779.01-1.088.032v-.32c.352-.021.613-.064.784-.128a.534.534 0 00.352-.384c.064-.192.096-.48.096-.864V5.368c0-.395-.032-.683-.096-.864a.534.534 0 00-.352-.384c-.171-.075-.432-.117-.784-.128v-.32l1.344.032c.48 0 .949.005 1.408.016h3.936c.629-.01 1.189-.027 1.68-.048zM92.944 9.24v.32h-3.008v-.32h3.008zm.368-2.112a21.54 21.54 0 00-.064 1.392c.01.32.016.613.016.88s.005.56.016.88c.01.32.037.784.08 1.392h-.368a4.48 4.48 0 00-.24-1.024 1.68 1.68 0 00-.544-.784c-.235-.203-.576-.304-1.024-.304v-.32c.33 0 .602-.07.816-.208.213-.139.378-.315.496-.528.128-.224.224-.453.288-.688a4.84 4.84 0 00.16-.688h.368zm12.495-3.456v.32c-.341.01-.603.053-.784.128a.577.577 0 00-.352.384c-.064.181-.096.47-.096.864v7.936c0 .384.032.672.096.864.064.192.181.32.352.384.181.064.443.107.784.128V15a13.332 13.332 0 00-1.024-.032 52.478 52.478 0 00-2.608 0c-.416 0-.757.01-1.024.032v-.32c.352-.021.613-.064.784-.128a.534.534 0 00.352-.384c.064-.192.096-.48.096-.864V5.368c0-.395-.032-.683-.096-.864a.534.534 0 00-.352-.384c-.171-.075-.432-.117-.784-.128v-.32c.267.01.608.021 1.024.032a52.616 52.616 0 002.608 0c.416-.01.757-.021 1.024-.032zm-57.863 17a27.81 27.81 0 00-.096 1.28c-.01.405-.016.715-.016.928 0 .203.005.4.016.592.01.181.021.336.032.464h-.368c-.085-.736-.224-1.312-.416-1.728-.192-.427-.453-.725-.784-.896-.32-.181-.741-.272-1.264-.272h-.88c-.32 0-.565.027-.736.08a.527.527 0 00-.352.336c-.053.17-.08.432-.08.784v8.192c0 .341.027.603.08.784.064.17.181.283.352.336.17.053.416.08.736.08h.912c.544 0 .997-.101 1.36-.304.373-.203.672-.533.896-.992.224-.47.39-1.11.496-1.92h.368c-.032.33-.048.757-.048 1.28 0 .224.005.55.016.976.021.427.053.87.096 1.328a47.468 47.468 0 00-1.84-.032c-.683-.01-1.29-.016-1.824-.016h-.976c-.395 0-.827.005-1.296.016-.459 0-.928.005-1.408.016-.47 0-.917.005-1.344.016v-.32c.352-.021.613-.064.784-.128a.534.534 0 00.352-.384c.064-.192.096-.48.096-.864v-7.936c0-.395-.032-.683-.096-.864a.534.534 0 00-.352-.384c-.17-.075-.432-.117-.784-.128v-.32l1.344.032c.48 0 .95.005 1.408.016h3.936c.63-.01 1.19-.027 1.68-.048zm-2.576 5.472v.32H42.52v-.32h2.848zm.464-2.112a21.466 21.466 0 00-.064 1.392c.01.32.016.613.016.88s.005.56.016.88c.01.32.037.784.08 1.392h-.368a5.138 5.138 0 00-.256-1.024 1.582 1.582 0 00-.528-.784c-.235-.203-.576-.304-1.024-.304v-.32c.33 0 .597-.07.8-.208.213-.139.384-.315.512-.528.128-.224.224-.453.288-.688a4.84 4.84 0 00.16-.688h.368zm12.464-3.36v.336c-.501 0-.816.048-.944.144-.128.096-.117.261.032.496l6.224 9.216c.203.31.368.517.496.624.139.096.32.155.544.176V32c-.192-.01-.47-.021-.832-.032a18.02 18.02 0 00-1.088-.032c-.47 0-.939.01-1.408.032-.47.01-.821.021-1.056.032v-.336c.49 0 .81-.032.96-.096.15-.075.15-.224 0-.448l-6.256-9.312c-.213-.31-.384-.517-.512-.624-.117-.107-.293-.165-.528-.176v-.336l.848.048c.373.01.752.016 1.136.016.459 0 .901-.005 1.328-.016.427-.021.779-.037 1.056-.048zm.384 5.584l.032.112c.021.064.043.133.064.208l.048.096-1.744 2.448c-.405.565-.63 1.035-.672 1.408-.043.373.059.656.304.848.256.181.613.283 1.072.304V32a8.076 8.076 0 00-.56-.016 14.31 14.31 0 00-.672-.016c-.224-.01-.443-.016-.656-.016h-.512c-.299 0-.57.005-.816.016-.245 0-.453.01-.624.032v-.32c.363-.096.72-.293 1.072-.592.352-.299.71-.699 1.072-1.2l2.592-3.632zm5.376-5.584v.32c-.341.085-.677.272-1.008.56-.33.288-.645.635-.944 1.04l-2.592 3.584-.064-.192-.048-.208 1.712-2.384c.395-.544.63-.987.704-1.328.075-.352.01-.613-.192-.784-.203-.17-.523-.267-.96-.288v-.32l.656.032c.235 0 .464.005.688.016h.608c.299 0 .57-.005.816-.016.245-.01.453-.021.624-.032zm5.87 0c.267.01.608.021 1.024.032.416.01.832.016 1.248.016.523 0 1.019-.005 1.488-.016.47-.01.8-.016.992-.016 1.43 0 2.49.293 3.184.88.704.587 1.056 1.344 1.056 2.272 0 .384-.07.79-.208 1.216a3.165 3.165 0 01-.72 1.168c-.341.352-.81.64-1.408.864-.587.224-1.339.336-2.256.336h-1.6v-.32h1.44c.672 0 1.184-.144 1.536-.432.363-.288.603-.667.72-1.136a5.76 5.76 0 00.192-1.52c0-1.013-.165-1.77-.496-2.272-.33-.501-.901-.752-1.712-.752-.437 0-.725.09-.864.272-.128.181-.192.55-.192 1.104v7.872c0 .405.043.71.128.912.085.203.25.336.496.4.245.064.597.101 1.056.112V32c-.31-.021-.71-.032-1.2-.032-.49-.01-.997-.016-1.52-.016-.448 0-.88.005-1.296.016-.416 0-.779.01-1.088.032v-.32c.352-.021.613-.064.784-.128a.534.534 0 00.352-.384c.064-.192.096-.48.096-.864v-7.936c0-.395-.032-.683-.096-.864a.534.534 0 00-.352-.384c-.17-.075-.432-.117-.784-.128v-.32z" fill="#F3C469"/></svg>